<svg width="45" height="53" viewBox="0 0 45 53" fill="none" xmlns="http://www.w3.org/2000/svg">
<path d="M15.5795 47.5106C15.3972 47.5106 15.2183 47.4425 15.0799 47.3031C14.8031 47.0242 14.8031 46.5718 15.0799 46.2929L16.8725 44.4867C17.4767 43.8779 18.1789 43.4051 18.9689 43.0751C19.7554 42.7452 20.5893 42.5785 21.44 42.5785H30.7539C32.1617 42.5785 33.6234 41.905 34.6632 40.7758L43.0791 31.0035C43.4032 30.6259 43.5855 30.1429 43.5855 29.6429C43.5855 29.0409 43.3256 28.466 42.8732 28.0715C42.0157 27.3197 40.7093 27.415 39.9632 28.2789L33.8158 35.4151C33.5593 35.7144 33.1103 35.7451 32.8166 35.4866C32.5229 35.228 32.4891 34.7757 32.7457 34.4797L38.8931 27.3436C40.1523 25.8843 42.3533 25.7245 43.8016 26.9932C44.5645 27.6599 45 28.6259 45 29.6429C45 30.4865 44.6962 31.3028 44.1493 31.9389L35.7232 41.7214C35.7198 41.7282 35.713 41.7316 35.7097 41.7384C34.3863 43.1806 32.5769 44.0071 30.7506 44.0071H21.4366C20.0896 44.0071 18.8237 44.5343 17.8751 45.4935L16.0825 47.2997C15.9441 47.4425 15.7618 47.5106 15.5795 47.5106Z" fill="#D8AE75"/>
<path d="M10.7251 52.4018C10.5428 52.4018 10.3638 52.3338 10.2254 52.191L0.209302 42.0989C0.0776443 41.9663 0 41.7826 0 41.5955C0 41.4085 0.0742685 41.2248 0.209302 41.0921L5.06377 36.2009C5.34059 35.922 5.78957 35.922 6.06639 36.2009L16.0825 46.2929C16.2142 46.4256 16.2918 46.6092 16.2918 46.7963C16.2918 46.9834 16.2176 47.1671 16.0825 47.2997L11.2281 52.191C11.0896 52.3338 10.9074 52.4018 10.7251 52.4018ZM1.71155 41.5955L10.7251 50.6773L14.5769 46.7963L5.56339 37.7145L1.71155 41.5955Z" fill="#D8AE75"/>
<path d="M30.6122 38.6091H20.7277C20.3361 38.6091 20.0188 38.2894 20.0188 37.8948C20.0188 37.5002 20.3361 37.1805 20.7277 37.1805H30.6122C31.6992 37.1805 32.5837 36.2893 32.5837 35.1975C32.5837 35.1363 32.5803 35.075 32.5769 35.0206C32.5769 35.0172 32.5769 35.0172 32.5769 35.0138C32.5364 34.5546 32.3339 34.1226 32.0098 33.7927C31.6384 33.4185 31.1422 33.2111 30.6155 33.2111H12.1193C10.7723 33.2111 9.5064 33.7383 8.55778 34.6975L6.06641 37.2077C5.78959 37.4866 5.3406 37.4866 5.06379 37.2077C4.78697 36.9288 4.78697 36.4764 5.06379 36.1975L7.55516 33.6872C8.15943 33.0784 8.86161 32.6056 9.64818 32.2757C10.4348 31.9457 11.2652 31.7791 12.1193 31.7791H30.6088C31.5135 31.7791 32.3642 32.1328 33.0056 32.7791C33.566 33.3437 33.9137 34.0886 33.9846 34.8811C33.9948 34.9832 33.9981 35.0886 33.9981 35.1941C33.9981 37.0785 32.479 38.6091 30.6122 38.6091Z" fill="#D8AE75"/>
<path d="M23.7693 30.8435H21.2341C20.8425 30.8435 20.5252 30.5238 20.5252 30.1292V7.52338C20.5252 7.12882 20.8425 6.80908 21.2341 6.80908C21.6257 6.80908 21.943 7.12882 21.943 7.52338V29.4149H23.0604V7.52338C23.0604 7.12882 23.3777 6.80908 23.7693 6.80908C24.1609 6.80908 24.4783 7.12882 24.4783 7.52338V30.1292C24.4783 30.5238 24.1609 30.8435 23.7693 30.8435Z" fill="#D8AE75"/>
<path d="M27.8068 33.2144H17.1932C16.8016 33.2144 16.4843 32.8947 16.4843 32.5001V30.1328C16.4843 29.7382 16.8016 29.4185 17.1932 29.4185H27.8068C28.1984 29.4185 28.5158 29.7382 28.5158 30.1328V32.5001C28.5158 32.8947 28.1984 33.2144 27.8068 33.2144ZM17.9021 31.7858H27.0979V30.8471H17.9021V31.7858Z" fill="#D8AE75"/>
<path d="M22.5 8.51665C20.91 8.51665 19.617 7.21391 19.617 5.61184C19.617 4.00977 20.91 2.70703 22.5 2.70703C24.09 2.70703 25.383 4.00977 25.383 5.61184C25.383 7.21391 24.09 8.51665 22.5 8.51665ZM22.5 4.13563C21.6932 4.13563 21.0349 4.7989 21.0349 5.61184C21.0349 6.42478 21.6932 7.08806 22.5 7.08806C23.3068 7.08806 23.9651 6.42478 23.9651 5.61184C23.9651 4.7989 23.3068 4.13563 22.5 4.13563Z" fill="#D8AE75"/>
<path d="M11.3803 23.2617C8.31498 23.2617 5.82024 20.7481 5.82024 17.6596C5.82024 17.5678 5.83712 17.4759 5.87087 17.3909L10.722 5.34646C10.83 5.07775 11.0899 4.90088 11.3803 4.90088C11.6706 4.90088 11.9271 5.07775 12.0385 5.34646L16.8896 17.3909C16.9234 17.4759 16.9403 17.5678 16.9403 17.6596C16.9403 20.7481 14.4455 23.2617 11.3803 23.2617ZM7.23809 17.7923C7.30898 20.0338 9.13869 21.8331 11.3803 21.8331C13.6218 21.8331 15.4515 20.0338 15.5224 17.7923L11.3803 7.50977L7.23809 17.7923Z" fill="#D8AE75"/>
<path d="M16.2311 18.3705H6.52553C6.13393 18.3705 5.8166 18.0508 5.8166 17.6562C5.8166 17.2616 6.13393 16.9419 6.52553 16.9419H16.2311C16.6227 16.9419 16.94 17.2616 16.94 17.6562C16.94 18.0508 16.6227 18.3705 16.2311 18.3705Z" fill="#D8AE75"/>
<path d="M33.6201 23.2617C30.5549 23.2617 28.0601 20.7481 28.0601 17.6596C28.0601 17.5677 28.077 17.4759 28.1107 17.3909L32.9652 5.34305C33.0732 5.07433 33.3332 4.89746 33.6235 4.89746C33.9138 4.89746 34.1704 5.07433 34.2818 5.34305L39.1329 17.3875C39.1666 17.4725 39.1835 17.5643 39.1835 17.6562C39.1835 20.7481 36.6888 23.2617 33.6201 23.2617ZM29.478 17.7922C29.5488 20.0338 31.3786 21.8331 33.6201 21.8331C35.8617 21.8331 37.6914 20.0338 37.7623 17.7922L33.6201 7.51315L29.478 17.7922Z" fill="#D8AE75"/>
<path d="M38.4746 18.3705H28.7691C28.3775 18.3705 28.0602 18.0508 28.0602 17.6562C28.0602 17.2616 28.3775 16.9419 28.7691 16.9419H38.4746C38.8662 16.9419 39.1836 17.2616 39.1836 17.6562C39.1836 18.0508 38.8662 18.3705 38.4746 18.3705Z" fill="#D8AE75"/>
<path d="M36.5536 6.32606H24.674C24.2824 6.32606 23.9651 6.00632 23.9651 5.61176C23.9651 5.21719 24.2824 4.89746 24.674 4.89746H36.5536C36.9452 4.89746 37.2626 5.21719 37.2626 5.61176C37.2626 6.00632 36.9452 6.32606 36.5536 6.32606Z" fill="#D8AE75"/>
<path d="M20.326 6.32606H8.44642C8.05482 6.32606 7.73749 6.00632 7.73749 5.61176C7.73749 5.21719 8.05482 4.89746 8.44642 4.89746H20.326C20.7176 4.89746 21.0349 5.21719 21.0349 5.61176C21.0349 6.00632 20.7176 6.32606 20.326 6.32606Z" fill="#D8AE75"/>
<path d="M23.5599 4.4146C23.1683 4.4146 22.851 4.09486 22.851 3.7003V2.14245C22.851 1.94517 22.6924 1.7887 22.4999 1.7887C22.3075 1.7887 22.1488 1.94857 22.1488 2.14245V3.7003C22.1488 4.09486 21.8315 4.4146 21.4399 4.4146C21.0483 4.4146 20.731 4.09486 20.731 3.7003V2.14245C20.731 1.15944 21.5243 0.360107 22.4999 0.360107C23.4755 0.360107 24.2689 1.15944 24.2689 2.14245V3.7003C24.2689 4.09486 23.9515 4.4146 23.5599 4.4146Z" fill="#D8AE75"/>
</svg>
