<svg width="54" height="62" viewBox="0 0 54 62" fill="none" xmlns="http://www.w3.org/2000/svg">
<path d="M28.7506 17.0156C28.7508 14.7219 28.0707 12.4796 26.7965 10.5723C25.5222 8.66503 23.7109 7.17851 21.5918 6.30072C19.4726 5.42293 17.1407 5.19331 14.891 5.6409C12.6414 6.08849 10.5749 7.19318 8.95314 8.81526C7.33133 10.4373 6.22699 12.504 5.77979 14.7537C5.33259 17.0035 5.56261 19.3353 6.44076 21.4543C7.31892 23.5734 8.80576 25.3844 10.7132 26.6583C12.6207 27.9322 14.8631 28.6119 17.1569 28.6113C20.2308 28.6071 23.1775 27.384 25.3509 25.2102C27.5243 23.0365 28.7469 20.0895 28.7506 17.0156ZM7.55221 17.0156C7.55201 15.1166 8.11498 13.2601 9.16991 11.6809C10.2248 10.1018 11.7243 8.87098 13.4788 8.1441C15.2333 7.41722 17.1639 7.22693 19.0265 7.5973C20.8891 7.96767 22.6001 8.88207 23.943 10.2249C25.2859 11.5676 26.2005 13.2785 26.5711 15.1411C26.9416 17.0037 26.7515 18.9343 26.0248 20.6888C25.2981 22.4434 24.0675 23.943 22.4885 24.9981C20.9094 26.0532 19.053 26.6164 17.1539 26.6164C14.609 26.6127 12.1693 25.5999 10.37 23.8002C8.57061 22.0004 7.55837 19.5606 7.5552 17.0156H7.55221Z" fill="#D8AE75"/>
<path d="M12.8968 42.1809C10.355 42.1809 7.91732 43.1906 6.12001 44.9879C4.32271 46.7852 3.31299 49.2229 3.31299 51.7646C3.31299 54.3064 4.32271 56.7441 6.12001 58.5414C7.91732 60.3387 10.355 61.3484 12.8968 61.3484H15.7116C18.4156 61.3422 21.0621 60.5682 23.3433 59.1165C25.6245 57.6648 27.4464 55.595 28.597 53.1481L30.2927 49.5193L32.3266 50.4729C32.4452 50.5285 32.5736 50.5602 32.7045 50.5662C32.8353 50.5722 32.9661 50.5523 33.0893 50.5078C33.2125 50.4632 33.3257 50.3948 33.4225 50.3065C33.5192 50.2182 33.5976 50.1117 33.6532 49.9931L34.7984 47.5523L36.1489 48.1857C36.2675 48.2413 36.396 48.273 36.5268 48.279C36.6577 48.285 36.7884 48.2651 36.9116 48.2206C37.0348 48.176 37.148 48.1076 37.2448 48.0193C37.3416 47.931 37.42 47.8245 37.4756 47.7059L39.3848 43.6342C41.6147 43.2911 43.7516 42.4983 45.6657 41.3039C47.5798 40.1096 49.2311 38.5386 50.5194 36.6864C51.8077 34.8342 52.706 32.7395 53.1598 30.5294C53.6137 28.3194 53.6135 26.0402 53.1594 23.8302C52.7053 21.6202 51.8067 19.5256 50.5181 17.6736C49.2296 15.8216 47.578 14.2508 45.6638 13.0567C43.7495 11.8626 41.6125 11.0701 39.3825 10.7273C37.1526 10.3845 34.8762 10.4986 32.6917 11.0626C31.7557 8.61997 30.2573 6.4323 28.318 4.67695C26.3787 2.92159 24.0529 1.64796 21.5294 0.959315C19.0059 0.27067 16.3557 0.186397 13.7935 0.713327C11.2313 1.24026 8.82941 2.36356 6.78246 3.99216C4.73552 5.62076 3.10117 7.70881 2.01193 10.087C0.922688 12.4652 0.409217 15.0667 0.513146 17.6804C0.617075 20.2941 1.33548 22.8465 2.61011 25.1307C3.88474 27.415 5.67972 29.3666 7.84952 30.8276V35.3212C7.84952 35.5858 7.95461 35.8395 8.14167 36.0265C8.32874 36.2136 8.58245 36.3187 8.847 36.3187H10.3382V39.0119C10.3382 39.2764 10.4433 39.5301 10.6304 39.7172C10.8174 39.9043 11.0712 40.0094 11.3357 40.0094H13.9112V41.1624C13.9116 41.296 13.8856 41.4282 13.8348 41.5517C13.7841 41.6752 13.7094 41.7874 13.6152 41.882C13.521 41.9766 13.409 42.0517 13.2857 42.103C13.1624 42.1543 13.0303 42.1807 12.8968 42.1809ZM32.2737 48.2425L23.5388 44.1479L24.259 42.6098L28.627 44.6576L32.9939 46.7054L32.2737 48.2425ZM20.5883 40.562C20.6779 40.8108 20.8627 41.0139 21.102 41.1265L22.4536 41.7599L21.3085 44.2008C21.2529 44.3194 21.2212 44.4478 21.2152 44.5786C21.2092 44.7095 21.229 44.8403 21.2736 44.9634C21.3181 45.0866 21.3865 45.1999 21.4748 45.2966C21.5631 45.3934 21.6696 45.4718 21.7883 45.5274L24.4156 46.7593L22.7159 50.4051C22.0903 51.7349 21.0998 52.8598 19.8598 53.6488C18.6199 54.4378 17.1813 54.8584 15.7116 54.8618H12.8968C12.0767 54.8618 11.2901 54.536 10.7103 53.9561C10.1304 53.3762 9.80457 52.5897 9.80457 51.7696C9.80457 50.9495 10.1304 50.163 10.7103 49.5831C11.2901 49.0032 12.0767 48.6774 12.8968 48.6774C14.8867 48.6751 16.7945 47.8835 18.2017 46.4763C19.6088 45.0692 20.4004 43.1614 20.4028 41.1714V40.0133H20.5713C20.524 40.195 20.5299 40.3865 20.5883 40.5649V40.562ZM43.0475 13.9074C45.9239 15.2614 48.2822 17.5136 49.7672 20.3246C51.2522 23.1356 51.7834 26.3531 51.2808 29.4922C50.7781 32.6314 49.2688 35.5221 46.9803 37.7289C44.6918 39.9356 41.7481 41.3388 38.5928 41.727C38.4251 41.7475 38.2654 41.8102 38.1286 41.9093C37.9918 42.0084 37.8825 42.1407 37.8107 42.2936L36.0961 45.9563L29.4738 42.8512L24.2042 40.3804L23.2885 39.9515C23.4872 39.8883 23.6608 39.7639 23.7844 39.596C23.908 39.4281 23.9754 39.2254 23.9767 39.0169V36.3237H25.468C25.7325 36.3237 25.9862 36.2186 26.1733 36.0315C26.3603 35.8445 26.4654 35.5907 26.4654 35.3262V32.3816C27.4486 34.3479 28.9701 35.9945 30.8529 37.1294C32.7357 38.2643 34.9022 38.8409 37.1 38.7921C39.2978 38.7433 41.4366 38.071 43.2671 36.8536C45.0976 35.6362 46.5445 33.9237 47.4394 31.9157C48.3342 29.9077 48.6401 27.6867 48.3214 25.5115C48.0027 23.3364 47.0726 21.2965 45.6394 19.6296C44.2061 17.9626 42.3288 16.7372 40.226 16.0961C38.1232 15.4549 35.8815 15.4244 33.762 16.0081C33.7011 14.9813 33.5445 13.9624 33.2942 12.9648C36.5568 12.1463 40.002 12.4792 43.0475 13.9074ZM33.7779 18.0868C35.591 17.4763 37.545 17.4213 39.3895 17.9287C41.234 18.4362 42.885 19.483 44.1306 20.9349C45.3762 22.3869 46.1598 24.1778 46.3808 26.078C46.6018 27.9783 46.2502 29.9012 45.371 31.6003C44.4919 33.2994 43.1253 34.6972 41.4465 35.6144C39.7677 36.5316 37.8532 36.9265 35.9484 36.7484C34.0437 36.5704 32.2355 35.8274 30.7559 34.6148C29.2762 33.4023 28.1924 31.7754 27.6435 29.9428C29.4337 28.5014 30.9039 26.7026 31.9601 24.6613C33.0164 22.6199 33.6355 20.3808 33.7779 18.0868ZM9.84447 34.3237V30.283C9.84463 30.1126 9.80116 29.9451 9.71822 29.7963C9.63529 29.6476 9.51563 29.5225 9.37067 29.4331C6.67339 27.7437 4.59902 25.2225 3.46081 22.2503C2.3226 19.2781 2.18235 16.0163 3.06123 12.9574C3.94011 9.89845 5.79041 7.20854 8.33272 5.29383C10.875 3.37911 13.9713 2.34357 17.154 2.34357C20.3367 2.34357 23.4329 3.37911 25.9752 5.29383C28.5176 7.20854 30.3679 9.89845 31.2467 12.9574C32.1256 16.0163 31.9854 19.2781 30.8472 22.2503C29.7089 25.2225 27.6346 27.7437 24.9373 29.4331C24.7942 29.5228 24.6762 29.6474 24.5943 29.7951C24.5125 29.9429 24.4695 30.1091 24.4695 30.278V34.3187H9.84447V34.3237ZM12.3332 38.0144V36.3187H21.9808V38.0144H12.3332ZM15.9061 41.1624V40.0133H18.4078V41.1664C18.4062 42.6276 17.8251 44.0284 16.7919 45.0616C15.7587 46.0948 14.3579 46.6759 12.8968 46.6775C11.5476 46.6775 10.2536 47.2135 9.29961 48.1675C8.34558 49.1215 7.80962 50.4154 7.80962 51.7646C7.80962 53.1138 8.34558 54.4077 9.29961 55.3618C10.2536 56.3158 11.5476 56.8517 12.8968 56.8517H15.7116C17.5606 56.8476 19.3704 56.3184 20.9303 55.3258C22.4903 54.3332 23.7363 52.918 24.5233 51.2449L26.2001 47.654L28.4674 48.7133L26.7896 52.3043C25.8007 54.4082 24.2345 56.1879 22.2732 57.4361C20.3119 58.6843 18.0364 59.3495 15.7116 59.3544H12.8968C10.8841 59.3544 8.95383 58.5549 7.53066 57.1317C6.10748 55.7085 5.30795 53.7783 5.30795 51.7656C5.30795 49.7529 6.10748 47.8227 7.53066 46.3995C8.95383 44.9763 10.8841 44.1768 12.8968 44.1768C13.6948 44.176 14.46 43.8586 15.0242 43.2942C15.5884 42.7297 15.9056 41.9645 15.9061 41.1664V41.1624Z" fill="#D8AE75"/>
<path d="M17.0522 30.8088H21.5259V32.8038H17.0522V30.8088Z" fill="#D8AE75"/>
<path d="M30.1389 41.4688L30.9748 39.6573L35.0378 41.5322L34.2019 43.3436L30.1389 41.4688Z" fill="#D8AE75"/>
</svg>
