<svg width="81" height="91" viewBox="0 0 81 91" fill="none" xmlns="http://www.w3.org/2000/svg">
<path d="M70.043 29.2002C69.2275 28.3788 68.0232 28.1822 67.0215 28.6104L64.9655 26.539L65.0106 26.4936C65.3599 26.1416 65.5522 25.6735 65.5522 25.176C65.5522 24.6781 65.3598 24.21 65.0104 23.8582L54.2533 13.0193C53.8425 12.6055 53.1765 12.6055 52.7658 13.0193C52.355 13.4333 52.355 14.1043 52.7658 14.5182L63.3432 25.1758C62.0892 26.4393 61.3335 27.2009 48.7603 39.8693C45.9911 37.0791 49.8555 40.9728 32.5864 23.573C36.177 19.9553 43.6265 12.4491 47.1694 8.87941L49.2152 10.9411C49.626 11.3549 50.2921 11.3549 50.7028 10.9411C51.1136 10.527 51.1136 9.85605 50.7028 9.44227L48.4769 7.19943C47.7558 6.47292 46.5825 6.47278 45.8613 7.19943L45.8163 7.24479L43.7616 5.1745C44.1807 4.18386 44.006 2.96656 43.1749 2.12897L42.2248 1.17183C41.7057 0.648394 41.0153 0.360107 40.2808 0.360107C39.5462 0.360107 38.8558 0.648394 38.3365 1.17155L24.9365 14.6731C24.4171 15.1964 24.1311 15.8921 24.1311 16.6321C24.1311 17.372 24.4173 18.0677 24.9365 18.591L25.8866 19.5481C26.4059 20.0714 27.0964 20.3597 27.8309 20.3597C28.2076 20.3597 28.5729 20.2838 28.9093 20.1393L30.9642 22.2097L30.9193 22.2549C30.5699 22.6068 30.3775 23.0748 30.3775 23.5727C30.3775 24.0703 30.5699 24.5383 30.9193 24.8905L36.4489 30.4619L33.431 33.5026L33.3178 33.3886C32.947 33.0148 32.4538 32.8089 31.9293 32.8089C31.4047 32.8089 30.9116 33.0148 30.5409 33.3885L28.7161 35.2273C28.0609 35.8874 27.9759 36.8783 28.4062 37.621L26.3538 39.487C25.9225 39.879 25.8882 40.5494 26.2775 40.984C26.6668 41.4185 27.3317 41.453 27.7632 41.0608L29.8479 39.1655L33.2851 42.6288L9.52181 69.1653C7.90439 70.9717 5.09369 71.0797 3.35229 69.3248C1.63389 67.5935 1.69364 64.7604 3.51064 63.1087L24.0811 44.4081C24.5124 44.0161 24.5466 43.3457 24.1574 42.9111C23.7683 42.4768 23.1031 42.4422 22.6717 42.8342L2.10136 61.5349C-0.593629 63.985 -0.722102 68.2173 1.86475 70.8236C4.43295 73.4117 8.634 73.3211 11.0838 70.5852L34.818 44.0808C35.5727 44.5225 36.5531 44.4141 37.1932 43.7693L39.0182 41.9305C39.389 41.5567 39.5934 41.06 39.5934 40.5316C39.5934 40.0032 39.389 39.5063 39.0182 39.1327L38.9049 39.0185L41.9227 35.9778L47.4524 41.5494C48.1736 42.2759 49.3468 42.2759 50.068 41.5494L50.113 41.504L52.1689 43.5754C51.7439 44.5846 51.939 45.7981 52.7543 46.6197L53.7044 47.5771C54.7766 48.6572 56.5207 48.6572 57.5928 47.5771L70.993 34.0754C72.0649 32.9952 72.0649 31.2377 70.993 30.1574L70.043 29.2002ZM27.3742 18.0496L26.424 17.0922C26.1717 16.8381 26.1716 16.4264 26.424 16.1722L39.8242 2.6705C40.0768 2.41613 40.4848 2.41613 40.7374 2.67064L41.6875 3.62792C41.9398 3.88201 41.94 4.29367 41.6875 4.5479C41.5722 4.66406 28.3015 18.0355 28.2874 18.0496C28.0347 18.304 27.6267 18.3037 27.3742 18.0496ZM30.5364 18.7814L42.4136 6.81406L44.3288 8.74374L32.4516 20.711L30.5364 18.7814ZM35.8049 42.1705C35.7803 42.1456 30.3166 36.6406 30.3025 36.6264L31.929 34.9876C32.6258 35.6897 36.6271 39.7212 37.4315 40.5316L35.8049 42.1705ZM37.4172 37.5196L34.9183 35.0019L37.9361 31.9611L40.435 34.479L37.4172 37.5196ZM63.4779 28.0378L65.393 29.9674L53.5157 41.9347L51.6006 40.0051L63.4779 28.0378ZM69.5056 32.5767L56.1054 46.0783C55.8538 46.3321 55.4439 46.3321 55.1922 46.0783L54.2421 45.1212C53.9904 44.8674 53.9904 44.4546 54.2421 44.2009L54.257 44.1859C77.6085 20.6575 54.741 43.6984 67.6422 30.6993C67.8941 30.4457 68.3037 30.4458 68.5554 30.6993L69.5054 31.6565C69.7573 31.9103 69.7573 32.3231 69.5056 32.5767Z" fill="white"/>
<path d="M34.8597 65.7621V66.1846H34.6563C32.6172 66.1846 30.9582 67.8561 30.9582 69.9106V71.2835C30.9582 72.0657 31.5898 72.702 32.3661 72.702H70.3901C71.1664 72.702 71.798 72.0657 71.798 71.2835V69.9106C71.798 67.8561 70.139 66.1846 68.0999 66.1846H67.8966V65.7621C67.8966 63.0884 66.4704 60.7441 64.3443 59.4608C64.7718 58.9427 65.0291 58.2772 65.0291 57.5524C65.0291 55.904 63.6981 54.5629 62.0619 54.5629H40.6944C39.0582 54.5629 37.7272 55.904 37.7272 57.5524C37.7272 58.2772 37.9846 58.9426 38.4121 59.4608C36.2858 60.7439 34.8597 63.0884 34.8597 65.7621ZM65.7928 65.7621V66.1846H64.1559C63.575 66.1846 63.104 66.659 63.104 67.2445C63.104 67.83 63.575 68.3044 64.1559 68.3044H68.0999C68.979 68.3044 69.6941 69.025 69.6941 69.9106V70.5823H33.062V69.9106C33.062 69.0248 33.7772 68.3044 34.6563 68.3044H59.2471C59.8281 68.3044 60.2991 67.83 60.2991 67.2445C60.2991 66.659 59.8281 66.1846 59.2471 66.1846H36.9635V65.7621C36.9635 62.8838 39.2875 60.5421 42.1442 60.5421H60.6121C63.4688 60.542 65.7928 62.8838 65.7928 65.7621ZM40.6944 58.4222C40.2183 58.4222 39.831 58.0319 39.831 57.5524C39.831 57.0729 40.2183 56.6826 40.6944 56.6826H62.0621C62.5382 56.6826 62.9255 57.0729 62.9255 57.5524C62.9255 58.0319 62.5382 58.4222 62.0621 58.4222H40.6944Z" fill="white"/>
<path d="M27.8603 73.5181C26.3162 73.5181 25.0617 77.0886 25.0617 81.4311C25.0617 85.7737 26.3162 89.3442 27.8603 89.3442H78.2338V73.6146H27.8603V73.5181Z" fill="#E1A553"/>
<path d="M80.3566 90.3093H27.86C25.158 90.3093 24 85.6772 24 81.3347C24 76.9922 25.2545 72.3601 27.86 72.3601H80.3566V74.4831H27.86C27.3775 74.5796 26.123 76.8957 26.123 81.3347C26.123 85.7738 27.3775 87.9933 27.86 88.1863H80.3566V90.3093Z" fill="#1A3248"/>
<path d="M73.6017 86.5457L70.3207 83.6506L67.0396 86.5457V76.7991H73.6017V86.5457Z" fill="white"/>
</svg>
