<svg width="138" height="48" viewBox="0 0 138 48" fill="none" xmlns="http://www.w3.org/2000/svg">
<rect x="0.5" width="137" height="48" rx="8" fill="white"/>
<path d="M43.5713 28.042H44.7593V29.5H43.3913C42.7433 29.5 42.1613 29.356 41.6453 29.068C41.4773 30.304 40.9193 31.276 39.9713 31.984C39.1313 32.608 38.0933 32.92 36.8573 32.92C35.2493 32.92 34.0073 32.38 33.1313 31.3C32.4593 30.46 32.1233 29.458 32.1233 28.294C32.1233 27.274 32.3693 26.404 32.8613 25.684L34.4093 25.342C33.8573 26.194 33.5813 27.124 33.5813 28.132C33.5813 29.128 33.8993 29.944 34.5353 30.58C35.1233 31.168 35.8973 31.462 36.8573 31.462C37.9493 31.462 38.7893 31.138 39.3773 30.49C39.8813 29.938 40.1333 29.23 40.1333 28.366V18.718L41.6993 17.89V26.242C41.6993 27.442 42.3233 28.042 43.5713 28.042ZM43.6827 29.5V28.042H46.1487C48.5847 28.042 50.5107 27.238 51.9267 25.63C50.9307 23.794 49.7187 22.876 48.2907 22.876C47.3187 22.876 46.3167 23.392 45.2847 24.424V22.984C46.2927 21.964 47.3607 21.454 48.4887 21.454C49.4127 21.454 50.3067 21.79 51.1707 22.462C52.0347 23.122 52.7967 24.07 53.4567 25.306V26.098C51.6927 28.366 49.2507 29.5 46.1307 29.5H43.6827ZM48.9567 33.082C48.3687 33.082 48.0747 32.782 48.0747 32.182C48.0747 31.594 48.3687 31.3 48.9567 31.3C49.5327 31.3 49.8207 31.594 49.8207 32.182C49.8207 32.782 49.5327 33.082 48.9567 33.082ZM64.3912 28.042V29.5H62.1592C62.1112 30.532 61.6672 31.384 60.8272 32.056C60.1192 32.608 59.3152 32.884 58.4152 32.884C57.6712 32.884 56.9692 32.71 56.3092 32.362V30.994C56.9452 31.33 57.5752 31.498 58.1992 31.498C58.8352 31.498 59.3872 31.3 59.8552 30.904C60.3352 30.508 60.5812 30.034 60.5932 29.482C59.9692 29.458 59.5072 29.434 59.2072 29.41C57.9112 29.338 56.9332 28.9 56.2732 28.096C55.7212 27.424 55.4452 26.554 55.4452 25.486C55.4452 24.178 55.7932 23.158 56.4892 22.426C57.1132 21.778 57.9352 21.454 58.9552 21.454C60.0232 21.454 60.8452 21.772 61.4212 22.408C61.9132 22.972 62.1592 23.71 62.1592 24.622V28.042H64.3912ZM60.5932 24.73C60.5932 23.506 60.0472 22.894 58.9552 22.894C58.3312 22.894 57.8452 23.122 57.4972 23.578C57.1492 24.022 56.9752 24.646 56.9752 25.45C56.9752 27.022 57.7432 27.856 59.2792 27.952C59.5672 27.988 60.0052 28.018 60.5932 28.042V24.73ZM63.3174 29.5V28.042H65.7834C68.2194 28.042 70.1454 27.238 71.5614 25.63C70.5654 23.794 69.3534 22.876 67.9254 22.876C66.9534 22.876 65.9514 23.392 64.9194 24.424V22.984C65.9274 21.964 66.9954 21.454 68.1234 21.454C69.0474 21.454 69.9414 21.79 70.8054 22.462C71.6694 23.122 72.4314 24.07 73.0914 25.306V26.098C71.3274 28.366 68.8854 29.5 65.7654 29.5H63.3174ZM68.5914 33.082C68.0034 33.082 67.7094 32.782 67.7094 32.182C67.7094 31.594 68.0034 31.3 68.5914 31.3C69.1674 31.3 69.4554 31.594 69.4554 32.182C69.4554 32.782 69.1674 33.082 68.5914 33.082Z" fill="#202020" fill-opacity="0.6"/>
<path d="M105.804 22.0415H104.998V22H95.998V26H101.65C100.825 28.3285 98.6095 30 95.998 30C92.6845 30 89.998 27.3135 89.998 24C89.998 20.6865 92.6845 18 95.998 18C97.5275 18 98.919 18.577 99.9785 19.5195L102.807 16.691C101.021 15.0265 98.632 14 95.998 14C90.4755 14 85.998 18.4775 85.998 24C85.998 29.5225 90.4755 34 95.998 34C101.521 34 105.998 29.5225 105.998 24C105.998 23.3295 105.929 22.675 105.804 22.0415Z" fill="#FFC107"/>
<path d="M87.1523 19.3455L90.4378 21.755C91.3268 19.554 93.4798 18 95.9993 18C97.5288 18 98.9203 18.577 99.9798 19.5195L102.808 16.691C101.022 15.0265 98.6333 14 95.9993 14C92.1583 14 88.8273 16.1685 87.1523 19.3455Z" fill="#FF3D00"/>
<path d="M96.0021 34.0003C98.5851 34.0003 100.932 33.0118 102.707 31.4043L99.6116 28.7853C98.5739 29.5745 97.3058 30.0014 96.0021 30.0003C93.4011 30.0003 91.1926 28.3418 90.3606 26.0273L87.0996 28.5398C88.7546 31.7783 92.1156 34.0003 96.0021 34.0003Z" fill="#4CAF50"/>
<path d="M105.806 22.0415H105V22H96V26H101.652C101.257 27.1082 100.547 28.0766 99.608 28.7855L99.6095 28.7845L102.705 31.4035C102.486 31.6025 106 29 106 24C106 23.3295 105.931 22.675 105.806 22.0415Z" fill="#1976D2"/>
<rect x="1" y="0.5" width="136" height="47" rx="7.5" stroke="#7D829E" stroke-opacity="0.7"/>
</svg>
