<svg width="192" height="200" viewBox="0 0 192 200" fill="none" xmlns="http://www.w3.org/2000/svg">
<path d="M177.659 61.2379C179.192 62.1576 180.878 62.3875 182.258 62.0043C183.714 61.851 185.17 61.0079 186.243 59.5517C187.316 58.0955 187.699 56.3327 187.469 54.8765C186.013 55.0298 184.404 55.8728 183.331 57.329C182.487 58.402 182.104 59.705 182.028 60.8546C181.568 59.7816 180.648 58.7853 179.498 58.0955C177.965 57.1758 176.203 56.9458 174.746 57.4057C175.053 58.8619 176.126 60.3181 177.659 61.2379Z" fill="#E1A553"/>
<path d="M13.4892 61.2379C11.9564 62.1576 10.2702 62.3875 8.89066 62.0043C7.43444 61.851 5.97822 61.0079 4.90521 59.5517C3.83221 58.0955 3.44899 56.3327 3.67892 54.8765C5.13514 55.0298 6.74465 55.8728 7.81766 57.329C8.66073 58.402 9.04395 59.705 9.12059 60.8546C9.58045 59.7816 10.5002 58.7853 11.6498 58.0955C13.1827 57.1758 14.9455 56.9458 16.4017 57.4057C16.0951 58.8619 15.0988 60.3181 13.4892 61.2379Z" fill="#E1A553"/>
<path d="M184.633 66.7563C183.79 67.8293 183.407 69.1322 183.331 70.2819C182.871 69.2089 181.951 68.2125 180.801 67.5227C179.268 66.603 177.506 66.3731 176.049 66.8329C176.356 68.2891 177.352 69.7454 178.962 70.6651C180.495 71.5848 182.181 71.8147 183.56 71.4315C185.017 71.2782 186.473 70.4352 187.546 68.9789C188.619 67.5227 189.002 65.7599 188.772 64.3037C187.316 64.457 185.783 65.3001 184.633 66.7563Z" fill="#E1A553"/>
<path d="M6.51467 66.7563C7.35774 67.8293 7.74097 69.1322 7.81761 70.2819C8.27747 69.2089 9.19718 68.2125 10.3468 67.5227C11.8797 66.603 13.6425 66.3731 15.0987 66.8329C14.7921 68.2891 13.7958 69.7454 12.1863 70.6651C10.6534 71.5848 8.96726 71.8147 7.58768 71.4315C6.13146 71.2782 4.67524 70.4352 3.60223 68.9789C2.52923 67.5227 2.14601 65.7599 2.37594 64.3037C3.9088 64.457 5.44166 65.3001 6.51467 66.7563Z" fill="#E1A553"/>
<path d="M185.86 75.8766C185.017 77.0263 184.557 78.4058 184.48 79.6321C183.944 78.4825 183.024 77.4095 181.798 76.7197C180.111 75.7233 178.272 75.4934 176.739 75.9533C177.046 77.4861 178.119 79.019 179.805 80.0154C181.414 81.0117 183.254 81.165 184.71 80.7818C186.243 80.5519 187.852 79.7088 188.925 78.1759C190.075 76.6431 190.535 74.8036 190.228 73.2708C188.619 73.424 187.009 74.3438 185.86 75.8766Z" fill="#E1A553"/>
<path d="M5.36506 75.8766C6.20814 77.0263 6.668 78.4058 6.74464 79.6321C7.28115 78.4825 8.20086 77.4095 9.42715 76.7197C11.1133 75.7233 12.9527 75.4934 14.4856 75.9533C14.179 77.4861 13.106 79.019 11.4199 80.0154C9.81038 81.0117 7.97093 81.165 6.51471 80.7818C4.98185 80.5519 3.37234 79.7088 2.29934 78.1759C1.14969 76.6431 0.68983 74.8036 0.996403 73.2708C2.52927 73.424 4.21542 74.3438 5.36506 75.8766Z" fill="#E1A553"/>
<path d="M184.327 90.0558C183.944 88.8295 183.177 87.6032 181.951 86.6835C180.418 85.4572 178.502 84.9973 176.893 85.2272C176.969 86.8368 177.889 88.5995 179.498 89.8258C181.031 91.0521 182.794 91.512 184.404 91.2821C186.013 91.2821 187.699 90.5923 189.079 89.2127C190.458 87.7565 191.148 85.9937 191.072 84.3842C189.462 84.3075 187.623 84.9973 186.243 86.4535C185.247 87.4499 184.557 88.7528 184.327 90.0558Z" fill="#E1A553"/>
<path d="M6.82128 90.0558C7.2045 88.8295 7.97093 87.6032 9.19722 86.6835C10.7301 85.4572 12.6462 84.9973 14.2557 85.2272C14.179 86.8368 13.2593 88.5995 11.6498 89.8258C10.1169 91.0521 8.35414 91.512 6.74464 91.2821C5.13513 91.2821 3.44899 90.5923 2.06941 89.2127C0.689831 87.7565 3.74764e-05 85.9937 0.0766807 84.3842C1.68619 84.3075 3.52563 84.9973 4.9052 86.4535C5.97821 87.4499 6.59135 88.7528 6.82128 90.0558Z" fill="#E1A553"/>
<path d="M186.09 97.3368C184.94 98.2565 184.097 99.4828 183.714 100.709C183.484 99.4061 182.871 98.1032 181.798 97.0302C180.418 95.574 178.579 94.8842 176.969 94.9608C176.892 96.5703 177.582 98.4098 178.962 99.866C180.341 101.246 182.028 101.935 183.637 101.935C185.247 102.165 187.009 101.629 188.542 100.479C190.075 99.2528 190.995 97.49 191.148 95.8805C189.539 95.574 187.699 96.0338 186.09 97.3368Z" fill="#E1A553"/>
<path d="M5.05846 97.3368C6.2081 98.2565 7.05118 99.4828 7.4344 100.709C7.66433 99.4061 8.27747 98.1032 9.35048 97.0302C10.7301 95.574 12.5695 94.8842 14.179 94.9608C14.2556 96.5703 13.5659 98.4098 12.1863 99.866C10.8067 101.246 9.12054 101.935 7.51104 101.935C5.90153 102.165 4.13874 101.629 2.60588 100.479C1.07301 99.2528 0.153286 97.49 0 95.8805C1.60951 95.574 3.52559 96.0338 5.05846 97.3368Z" fill="#E1A553"/>
<path d="M183.79 109.523C182.334 110.366 181.261 111.516 180.571 112.819C180.571 111.362 180.112 109.83 179.115 108.45C177.812 106.611 175.973 105.538 174.133 105.308C173.75 107.07 174.133 109.216 175.436 111.056C176.663 112.819 178.502 113.892 180.265 114.198C181.951 114.735 184.02 114.505 185.936 113.432C187.852 112.359 189.155 110.596 189.615 108.833C187.929 108.22 185.783 108.45 183.79 109.523Z" fill="#E1A553"/>
<path d="M7.35772 109.523C8.81395 110.366 9.88695 111.516 10.5767 112.819C10.5767 111.362 11.0366 109.83 12.033 108.45C13.3359 106.611 15.1753 105.538 17.0148 105.308C17.398 107.07 17.0148 109.216 15.7118 111.056C14.4855 112.819 12.6461 113.892 10.8833 114.198C9.19717 114.735 7.12779 114.505 5.21171 113.432C3.29563 112.359 1.9927 110.596 1.53284 108.833C3.29563 108.22 5.44164 108.45 7.35772 109.523Z" fill="#E1A553"/>
<path d="M178.962 121.709C177.199 122.322 175.819 123.395 174.9 124.698C175.13 123.166 174.9 121.403 174.133 119.717C173.06 117.494 171.221 115.961 169.305 115.425C168.538 117.264 168.615 119.64 169.688 121.863C170.761 124.009 172.447 125.465 174.363 126.078C176.126 126.921 178.425 127.074 180.648 126.308C182.947 125.465 184.633 123.855 185.4 121.939C183.637 121.02 181.261 120.866 178.962 121.709Z" fill="#E1A553"/>
<path d="M12.2629 121.709C14.0256 122.322 15.4052 123.395 16.3249 124.698C16.095 123.166 16.3249 121.403 17.0914 119.717C18.1644 117.494 20.0038 115.961 21.9199 115.425C22.6863 117.264 22.6097 119.64 21.5367 121.863C20.4637 124.009 18.7775 125.465 16.8614 126.078C15.0987 126.921 12.7994 127.074 10.5767 126.308C8.27741 125.465 6.59126 123.855 5.82483 121.939C7.58762 121.02 9.96356 120.866 12.2629 121.709Z" fill="#E1A553"/>
<path d="M173.06 131.596C171.298 132.209 169.918 133.282 168.998 134.585C169.228 133.052 168.998 131.29 168.232 129.604C167.159 127.381 165.319 125.848 163.403 125.312C162.637 127.151 162.713 129.527 163.786 131.75C164.86 133.896 166.546 135.352 168.462 135.965C170.225 136.808 172.524 136.961 174.746 136.195C177.046 135.352 178.732 133.742 179.498 131.826C177.736 130.906 175.36 130.753 173.06 131.596Z" fill="#E1A553"/>
<path d="M18.0878 131.596C19.8506 132.209 21.2302 133.282 22.1499 134.585C21.92 133.052 22.1499 131.29 22.9163 129.604C23.9893 127.381 25.8288 125.848 27.7449 125.312C28.5113 127.151 28.4346 129.527 27.3616 131.75C26.2886 133.896 24.6025 135.352 22.6864 135.965C20.9236 136.808 18.6243 136.961 16.4017 136.195C14.1024 135.352 12.4162 133.742 11.6498 131.826C13.4126 130.906 15.7885 130.753 18.0878 131.596Z" fill="#E1A553"/>
<path d="M167.006 142.02C165.166 142.403 163.633 143.323 162.637 144.472C163.097 142.94 163.097 141.177 162.484 139.414C161.717 137.115 160.108 135.352 158.268 134.509C157.272 136.272 157.042 138.648 157.885 140.947C158.651 143.169 160.184 144.932 161.947 145.775C163.557 146.848 165.856 147.308 168.155 146.772C170.531 146.235 172.447 144.779 173.444 143.093C171.681 141.943 169.381 141.483 167.006 142.02Z" fill="#E1A553"/>
<path d="M24.2193 142.02C26.0587 142.403 27.5916 143.323 28.5879 144.472C28.1281 142.94 28.1281 141.177 28.7412 139.414C29.5077 137.115 31.1172 135.352 32.9566 134.509C33.953 136.272 34.1829 138.648 33.3398 140.947C32.5734 143.169 31.0405 144.932 29.2777 145.775C27.6682 146.848 25.3689 147.308 23.0696 146.772C20.6937 146.235 18.7776 144.779 17.7812 143.093C19.4674 141.943 21.8433 141.483 24.2193 142.02Z" fill="#E1A553"/>
<path d="M159.265 150.911C157.425 151.14 155.816 151.83 154.589 152.903C155.202 151.447 155.356 149.684 154.972 147.845C154.436 145.469 153.056 143.553 151.294 142.556C150.144 144.166 149.607 146.542 150.144 148.918C150.68 151.217 151.983 153.133 153.67 154.13C155.202 155.356 157.348 156.046 159.724 155.816C162.177 155.586 164.246 154.359 165.396 152.75C163.94 151.37 161.717 150.681 159.265 150.911Z" fill="#E1A553"/>
<path d="M31.8835 150.911C33.723 151.14 35.3325 151.83 36.5588 152.903C35.9456 151.447 35.7923 149.684 36.1756 147.845C36.7121 145.469 38.0916 143.553 39.8544 142.556C41.0041 144.166 41.5406 146.542 41.0041 148.918C40.4676 151.217 39.1646 153.133 37.4785 154.13C35.9456 155.356 33.7996 156.046 31.4237 155.816C28.9711 155.586 26.9017 154.359 25.7521 152.75C27.2083 151.37 29.5076 150.681 31.8835 150.911Z" fill="#E1A553"/>
<path d="M151.14 160.721C149.071 160.797 147.308 161.564 145.929 162.637C146.695 161.027 147.002 159.111 146.695 157.119C146.235 154.436 144.856 152.29 142.939 151.064C141.56 152.827 140.87 155.356 141.33 158.038C141.713 160.644 143.093 162.79 144.856 164.016C146.465 165.473 148.841 166.392 151.447 166.239C154.129 166.086 156.505 164.86 157.885 163.173C156.275 161.564 153.823 160.644 151.14 160.721Z" fill="#E1A553"/>
<path d="M40.0843 160.721C42.1537 160.797 43.9165 161.564 45.2961 162.637C44.5296 161.027 44.2231 159.111 44.5296 157.119C44.9895 154.436 46.3691 152.29 48.2851 151.064C49.6647 152.827 50.3545 155.356 49.8947 158.038C49.5114 160.644 48.1319 162.79 46.3691 164.016C44.7596 165.473 42.3836 166.392 39.7778 166.239C37.0952 166.086 34.7193 164.86 33.3397 163.173C34.9492 161.564 37.4018 160.644 40.0843 160.721Z" fill="#E1A553"/>
<path d="M141.483 168.768C139.414 168.692 137.575 169.228 136.118 170.224C137.038 168.692 137.498 166.852 137.345 164.783C137.115 162.1 135.888 159.801 134.126 158.421C132.593 160.031 131.673 162.483 131.903 165.166C132.056 167.772 133.283 169.995 134.969 171.451C136.425 173.06 138.724 174.133 141.33 174.21C144.013 174.287 146.465 173.29 147.998 171.757C146.542 169.995 144.166 168.845 141.483 168.768Z" fill="#E1A553"/>
<path d="M49.6648 168.768C51.7342 168.692 53.5736 169.228 55.0298 170.224C54.1101 168.692 53.6503 166.852 53.8036 164.783C54.0335 162.1 55.2598 159.801 57.0226 158.421C58.5554 160.031 59.4751 162.483 59.2452 165.166C59.0919 167.772 57.8656 169.995 56.1795 171.451C54.7233 173.06 52.424 174.133 49.8181 174.21C47.1356 174.287 44.683 173.29 43.1501 171.757C44.6064 169.995 46.9823 168.845 49.6648 168.768Z" fill="#E1A553"/>
<path d="M129.527 176.663C127.534 176.356 125.542 176.663 124.009 177.429C125.082 176.049 125.771 174.21 125.925 172.217C126.078 169.535 125.158 167.082 123.549 165.473C121.863 166.852 120.636 169.228 120.483 171.911C120.33 174.517 121.249 176.892 122.706 178.502C123.932 180.265 126.078 181.644 128.684 182.028C131.366 182.487 133.896 181.798 135.658 180.418C134.355 178.502 132.209 177.122 129.527 176.663Z" fill="#E1A553"/>
<path d="M61.6977 176.663C63.6905 176.356 65.6832 176.663 67.2161 177.429C66.1431 176.049 65.4533 174.21 65.3 172.217C65.1467 169.535 66.0664 167.082 67.6759 165.473C69.3621 166.852 70.5884 169.228 70.7417 171.911C70.8949 174.517 69.9752 176.892 68.519 178.502C67.2927 180.265 65.1467 181.644 62.5408 182.028C59.8583 182.487 57.3291 181.798 55.5663 180.418C56.7926 178.502 59.0152 177.122 61.6977 176.663Z" fill="#E1A553"/>
<path d="M181.338 55.2597C182.258 53.8035 182.564 52.0407 182.181 50.2013C181.721 48.4385 180.571 46.9822 179.115 46.1392C178.195 47.5954 177.889 49.3582 178.272 51.1976C178.732 52.9604 179.882 54.34 181.338 55.2597Z" fill="#E1A553"/>
<path d="M9.81033 55.2597C8.89061 53.8035 8.58405 52.0407 8.96726 50.2013C9.42712 48.4385 10.5768 46.9822 12.033 46.1392C12.9527 47.5954 13.2593 49.3582 12.8761 51.1976C12.4162 52.9604 11.2666 54.34 9.81033 55.2597Z" fill="#E1A553"/>
<path d="M163.71 66.6796C156.429 35.9457 160.108 22.9163 160.108 22.9163C160.108 22.9163 116.498 13.7958 95.7273 0C95.6507 0 95.6507 0.0766479 95.5741 0.0766479C95.4974 0.0766479 95.4974 0 95.4208 0C74.6505 13.7191 31.0405 22.9163 31.0405 22.9163C31.0405 22.9163 34.796 35.9457 27.4383 66.6796C23.2995 84.0009 23.1462 134.202 95.5741 165.089C168.002 134.202 167.849 84.0009 163.71 66.6796ZM77.9461 90.439L60.1649 106.151L42.307 90.2857L54.4167 51.0444H56.7926L45.0662 89.136H75.1103L63.3839 51.0444H65.7599L77.9461 90.439ZM111.976 134.356H79.1724V125.848H91.3587V47.5188H50.1247V43.5333H91.3587V38.015H99.7894V43.5333H141.023V47.5188H99.7894V125.848H111.976V134.356ZM131.06 106.151L113.279 90.209L125.388 51.121H127.764L116.038 89.2127H146.082L134.356 51.121H136.731L148.841 90.3623L131.06 106.151Z" fill="#E1A553"/>
<path d="M120.483 182.794C118.49 182.487 116.498 182.794 114.965 183.56C116.038 182.181 116.728 180.341 116.881 178.349C117.034 175.666 116.114 173.214 114.505 171.604C112.819 172.984 111.592 175.36 111.439 178.042C111.363 180.111 112.052 182.257 113.049 183.714C111.899 184.557 109.293 185.936 105.844 186.779C106.304 187.316 106.534 188.082 106.687 188.619C109.14 188.006 111.822 186.856 114.045 185.093C115.348 186.626 117.264 187.776 119.64 188.159C122.323 188.619 124.852 187.929 126.615 186.549C125.388 184.71 123.166 183.254 120.483 182.794Z" fill="#E1A553"/>
<path d="M85.2273 186.779C81.855 185.936 79.2491 184.557 78.1761 183.79C79.0958 182.334 79.8623 180.188 79.7856 178.119C79.6323 175.436 78.4827 173.06 76.7199 171.681C75.187 173.29 74.1907 175.743 74.3439 178.425C74.4206 180.495 75.187 182.257 76.26 183.637C74.6505 182.871 72.7344 182.564 70.7417 182.871C68.0592 183.33 65.9132 184.71 64.6869 186.626C66.4497 188.006 68.9789 188.695 71.6614 188.236C74.0374 187.852 75.9535 186.703 77.2564 185.17C79.479 187.009 82.1616 188.082 84.5375 188.695C84.5375 188.082 84.7674 187.316 85.2273 186.779Z" fill="#E1A553"/>
<path d="M105.384 189.002C105.231 188.082 104.848 187.623 104.388 187.009C103.928 186.549 103.392 186.243 102.702 186.09C100.939 185.63 99.4062 186.243 98.2566 186.933C98.4865 186.013 98.6398 185.093 98.5631 184.097C98.4098 180.265 96.3405 177.812 95.574 177.429C94.8076 177.812 92.7383 180.341 92.585 184.097C92.5083 185.093 92.6616 186.09 92.8915 186.933C91.7419 186.243 90.1324 185.63 88.4462 186.09C87.7564 186.243 87.1433 186.626 86.7601 187.086C86.3002 187.469 85.9936 188.082 85.7637 189.079C85.5338 190.535 86.1469 191.991 87.6032 192.374C90.3623 193.141 87.1433 191.531 89.7492 190.152C91.4353 189.232 93.3514 189.692 93.2748 192.221C93.1981 193.831 92.4317 195.823 90.4389 195.134C89.5959 194.827 90.7455 197.126 92.2784 197.203C92.8149 197.203 94.3477 197.05 94.5777 195.9C94.5777 197.28 95.1142 199.119 95.574 199.502C96.0339 199.119 96.5704 197.28 96.5704 195.9C96.8003 197.05 98.3332 197.203 98.8697 197.203C100.479 197.126 101.629 194.827 100.709 195.134C98.793 195.823 97.95 193.831 97.8733 192.221C97.7201 189.692 99.7128 189.232 101.399 190.152C103.928 191.531 100.786 193.141 103.545 192.374C105.078 191.915 105.691 190.458 105.384 189.002Z" fill="#E1A553"/>
</svg>
