<svg width="18" height="18" viewBox="0 0 18 18" fill="none" xmlns="http://www.w3.org/2000/svg">
<path fill-rule="evenodd" clip-rule="evenodd" d="M10.1137 0.0416261H12.0529C13.0486 0.0416192 13.8405 0.0416137 14.4755 0.101995C15.1267 0.163908 15.6772 0.293685 16.1677 0.594228C16.6722 0.903439 17.0965 1.32768 17.4057 1.83226C17.7062 2.32271 17.836 2.87326 17.8979 3.52442C17.9583 4.15947 17.9583 4.95131 17.9583 5.94706V6.62685C17.9583 7.33566 17.9583 7.89942 17.9271 8.35656C17.8952 8.82419 17.8286 9.22573 17.6728 9.60172C17.2922 10.5206 16.5622 11.2506 15.6433 11.6312C15.3274 11.7621 14.9906 11.8308 14.609 11.8682C14.6046 11.9843 14.599 12.0947 14.5918 12.1997C14.5579 12.6964 14.4874 13.1197 14.3237 13.5148C13.9219 14.4847 13.1514 15.2553 12.1815 15.657C11.6841 15.8631 11.1354 15.9234 10.4455 15.9455C10.0743 15.9573 9.83704 15.9655 9.65679 15.9875C9.48638 16.0083 9.42243 16.0361 9.38786 16.0565C9.34944 16.0792 9.29641 16.1209 9.20394 16.2482C9.10404 16.3858 8.99095 16.5756 8.81181 16.8782L8.59561 17.2435C8.03149 18.1966 6.63514 18.1966 6.07102 17.2435L5.85483 16.8782C5.67568 16.5756 5.56259 16.3858 5.4627 16.2482C5.37023 16.1209 5.3172 16.0792 5.27878 16.0565C5.24421 16.0361 5.18026 16.0083 5.00985 15.9875C4.8296 15.9655 4.59231 15.9573 4.2211 15.9455C3.5312 15.9234 2.98259 15.8631 2.48521 15.657C1.51531 15.2553 0.744721 14.4847 0.342974 13.5148C0.179305 13.1197 0.108719 12.6964 0.0748309 12.1997C0.0416583 11.7135 0.0416609 11.1134 0.0416643 10.3561V9.6344C0.0416577 8.57058 0.0416526 7.72762 0.10587 7.05221C0.17162 6.36069 0.309072 5.78057 0.624963 5.26508C0.95135 4.73246 1.39916 4.28465 1.93177 3.95826C2.44726 3.64237 3.02739 3.50492 3.7189 3.43917C3.89469 3.42245 4.08183 3.41009 4.28126 3.40095C4.34795 2.80108 4.4809 2.28916 4.76089 1.83226C5.07009 1.32768 5.49433 0.903439 5.99892 0.594228C6.48936 0.293685 7.03991 0.163908 7.69106 0.101995C8.32611 0.0416137 9.11796 0.0416192 10.1137 0.0416261ZM5.54442 3.37596C5.78342 3.37496 6.03536 3.37496 6.30108 3.37496H8.36558C9.42939 3.37495 10.2724 3.37495 10.9478 3.43917C11.6393 3.50492 12.2194 3.64237 12.7349 3.95826C13.2675 4.28465 13.7153 4.73246 14.0417 5.26508C14.3576 5.78057 14.495 6.36069 14.5608 7.05221C14.625 7.72762 14.625 8.57058 14.625 9.63439V10.3561C14.625 10.4422 14.625 10.5263 14.6249 10.6084C14.8544 10.5786 15.0219 10.5357 15.165 10.4764C15.7776 10.2226 16.2642 9.73595 16.518 9.12337C16.6001 8.92508 16.6524 8.67546 16.68 8.27147C16.7079 7.86188 16.7083 7.34074 16.7083 6.60415V5.97915C16.7083 4.9441 16.7076 4.21169 16.6535 3.64273C16.6003 3.08307 16.4998 2.74641 16.3399 2.48539C16.1337 2.14899 15.8509 1.86617 15.5145 1.66003C15.2535 1.50007 14.9168 1.3996 14.3572 1.34638C13.7882 1.29229 13.0558 1.29163 12.0208 1.29163H10.1458C9.11074 1.29163 8.37834 1.29229 7.80938 1.34638C7.24972 1.3996 6.91307 1.50007 6.65204 1.66003C6.31565 1.86617 6.03283 2.14899 5.82669 2.48538C5.69289 2.70373 5.60191 2.97235 5.54442 3.37596ZM3.83722 4.68355C3.2372 4.7406 2.87097 4.84875 2.5849 5.02406C2.22048 5.24738 1.91408 5.55378 1.69076 5.9182C1.51546 6.20428 1.40731 6.57051 1.35026 7.17053C1.29232 7.77985 1.29166 8.5634 1.29166 9.66665V10.3333C1.29166 11.1184 1.292 11.676 1.32193 12.1146C1.35148 12.5477 1.40776 12.819 1.49782 13.0364C1.7727 13.7001 2.29995 14.2273 2.96356 14.5022C3.24205 14.6175 3.60085 14.675 4.26107 14.6961L4.28698 14.6969C4.62482 14.7077 4.91866 14.7171 5.1612 14.7467C5.41975 14.7782 5.67378 14.8378 5.91518 14.9806C6.15273 15.1212 6.3243 15.3074 6.47407 15.5136C6.61261 15.7044 6.75536 15.9456 6.91718 16.219L7.14671 16.6068C7.18455 16.6707 7.25062 16.7083 7.33332 16.7083C7.41602 16.7083 7.48208 16.6707 7.51992 16.6068L7.74946 16.219C7.91128 15.9456 8.05402 15.7044 8.19257 15.5136C8.34233 15.3074 8.51391 15.1212 8.75146 14.9806C8.99286 14.8378 9.24688 14.7782 9.50544 14.7467C9.74797 14.7171 10.0418 14.7077 10.3797 14.6969L10.4056 14.6961C11.0658 14.675 11.4246 14.6175 11.7031 14.5022C12.3667 14.2273 12.894 13.7001 13.1688 13.0364C13.2589 12.819 13.3152 12.5477 13.3447 12.1146C13.3747 11.676 13.375 11.1184 13.375 10.3333V9.66665C13.375 8.5634 13.3743 7.77985 13.3164 7.17053C13.2594 6.57051 13.1512 6.20428 12.9759 5.9182C12.7526 5.55377 12.4462 5.24738 12.0818 5.02406C11.7957 4.84875 11.4295 4.7406 10.8294 4.68355C10.2201 4.62562 9.43658 4.62496 8.33333 4.62496H6.33333C5.23009 4.62496 4.44654 4.62562 3.83722 4.68355Z" fill="black" fill-opacity="0.7"/>
<path d="M5.25 9.83329C5.25 10.2935 4.8769 10.6666 4.41666 10.6666C3.95643 10.6666 3.58333 10.2935 3.58333 9.83329C3.58333 9.37306 3.95643 8.99996 4.41666 8.99996C4.8769 8.99996 5.25 9.37306 5.25 9.83329Z" fill="black" fill-opacity="0.7"/>
<path d="M8.16667 9.83329C8.16667 10.2935 7.79357 10.6666 7.33333 10.6666C6.87309 10.6666 6.5 10.2935 6.5 9.83329C6.5 9.37306 6.87309 8.99996 7.33333 8.99996C7.79357 8.99996 8.16667 9.37306 8.16667 9.83329Z" fill="black" fill-opacity="0.7"/>
<path d="M11.0833 9.83329C11.0833 10.2935 10.7102 10.6666 10.25 10.6666C9.78976 10.6666 9.41667 10.2935 9.41667 9.83329C9.41667 9.37306 9.78976 8.99996 10.25 8.99996C10.7102 8.99996 11.0833 9.37306 11.0833 9.83329Z" fill="black" fill-opacity="0.7"/>
</svg>
