<svg width="20" height="20" viewBox="0 0 20 20" fill="none" xmlns="http://www.w3.org/2000/svg">
<path fill-rule="evenodd" clip-rule="evenodd" d="M11.1137 1.04163H13.0529C14.0486 1.04162 14.8405 1.04161 15.4755 1.10199C16.1267 1.16391 16.6772 1.29368 17.1677 1.59423C17.6722 1.90344 18.0965 2.32768 18.4057 2.83226C18.7062 3.32271 18.836 3.87326 18.8979 4.52442C18.9583 5.15947 18.9583 5.95131 18.9583 6.94706V7.62685C18.9583 8.33566 18.9583 8.89942 18.9271 9.35656C18.8952 9.82419 18.8286 10.2257 18.6728 10.6017C18.2922 11.5206 17.5622 12.2506 16.6433 12.6312C16.3274 12.7621 15.9906 12.8308 15.609 12.8682C15.6046 12.9843 15.599 13.0947 15.5918 13.1997C15.5579 13.6964 15.4874 14.1197 15.3237 14.5148C14.9219 15.4847 14.1514 16.2553 13.1815 16.657C12.6841 16.8631 12.1354 16.9234 11.4455 16.9455C11.0743 16.9573 10.837 16.9655 10.6568 16.9875C10.4864 17.0083 10.4224 17.0361 10.3879 17.0565C10.3494 17.0792 10.2964 17.1209 10.2039 17.2482C10.104 17.3858 9.99095 17.5756 9.81181 17.8782L9.59561 18.2435C9.03149 19.1966 7.63514 19.1966 7.07102 18.2435L6.85483 17.8782C6.67568 17.5756 6.56259 17.3858 6.4627 17.2482C6.37023 17.1209 6.3172 17.0792 6.27878 17.0565C6.24421 17.0361 6.18026 17.0083 6.00985 16.9875C5.8296 16.9655 5.59231 16.9573 5.2211 16.9455C4.5312 16.9234 3.98259 16.8631 3.48521 16.657C2.51531 16.2553 1.74472 15.4847 1.34297 14.5148C1.1793 14.1197 1.10872 13.6964 1.07483 13.1997C1.04166 12.7135 1.04166 12.1134 1.04166 11.3561V10.6344C1.04166 9.57058 1.04165 8.72762 1.10587 8.05221C1.17162 7.36069 1.30907 6.78057 1.62496 6.26508C1.95135 5.73246 2.39916 5.28465 2.93177 4.95826C3.44726 4.64237 4.02739 4.50492 4.7189 4.43917C4.89469 4.42245 5.08183 4.41009 5.28126 4.40095C5.34795 3.80108 5.4809 3.28916 5.76089 2.83226C6.07009 2.32768 6.49433 1.90344 6.99892 1.59423C7.48936 1.29368 8.03991 1.16391 8.69106 1.10199C9.32611 1.04161 10.118 1.04162 11.1137 1.04163ZM6.54442 4.37596C6.78342 4.37496 7.03536 4.37496 7.30108 4.37496H9.36558C10.4294 4.37495 11.2724 4.37495 11.9478 4.43917C12.6393 4.50492 13.2194 4.64237 13.7349 4.95826C14.2675 5.28465 14.7153 5.73246 15.0417 6.26508C15.3576 6.78057 15.495 7.36069 15.5608 8.05221C15.625 8.72762 15.625 9.57058 15.625 10.6344V11.3561C15.625 11.4422 15.625 11.5263 15.6249 11.6084C15.8544 11.5786 16.0219 11.5357 16.165 11.4764C16.7776 11.2226 17.2642 10.7359 17.518 10.1234C17.6001 9.92508 17.6524 9.67546 17.68 9.27148C17.7079 8.86188 17.7083 8.34074 17.7083 7.60415V6.97915C17.7083 5.9441 17.7076 5.21169 17.6535 4.64273C17.6003 4.08307 17.4998 3.74641 17.3399 3.48539C17.1337 3.14899 16.8509 2.86617 16.5145 2.66003C16.2535 2.50007 15.9168 2.3996 15.3572 2.34638C14.7882 2.29229 14.0558 2.29163 13.0208 2.29163H11.1458C10.1107 2.29163 9.37834 2.29229 8.80938 2.34638C8.24972 2.3996 7.91307 2.50007 7.65204 2.66003C7.31565 2.86617 7.03283 3.14899 6.82669 3.48538C6.69289 3.70373 6.60191 3.97235 6.54442 4.37596ZM4.83722 5.68355C4.2372 5.7406 3.87097 5.84875 3.5849 6.02406C3.22048 6.24738 2.91408 6.55378 2.69076 6.9182C2.51546 7.20428 2.40731 7.57051 2.35026 8.17053C2.29232 8.77985 2.29166 9.5634 2.29166 10.6666V11.3333C2.29166 12.1184 2.292 12.676 2.32193 13.1146C2.35148 13.5477 2.40776 13.819 2.49782 14.0364C2.7727 14.7001 3.29995 15.2273 3.96356 15.5022C4.24205 15.6175 4.60085 15.675 5.26107 15.6961L5.28698 15.6969C5.62482 15.7077 5.91866 15.7171 6.1612 15.7467C6.41975 15.7782 6.67378 15.8378 6.91518 15.9806C7.15273 16.1212 7.3243 16.3074 7.47407 16.5136C7.61261 16.7044 7.75536 16.9456 7.91718 17.219L8.14671 17.6068C8.18455 17.6707 8.25062 17.7083 8.33332 17.7083C8.41602 17.7083 8.48208 17.6707 8.51992 17.6068L8.74946 17.219C8.91128 16.9456 9.05402 16.7044 9.19257 16.5136C9.34233 16.3074 9.51391 16.1212 9.75146 15.9806C9.99286 15.8378 10.2469 15.7782 10.5054 15.7467C10.748 15.7171 11.0418 15.7077 11.3797 15.6969L11.4056 15.6961C12.0658 15.675 12.4246 15.6175 12.7031 15.5022C13.3667 15.2273 13.894 14.7001 14.1688 14.0364C14.2589 13.819 14.3152 13.5477 14.3447 13.1146C14.3747 12.676 14.375 12.1184 14.375 11.3333V10.6666C14.375 9.5634 14.3743 8.77985 14.3164 8.17053C14.2594 7.57051 14.1512 7.20428 13.9759 6.9182C13.7526 6.55377 13.4462 6.24738 13.0818 6.02406C12.7957 5.84875 12.4295 5.7406 11.8294 5.68355C11.2201 5.62562 10.4366 5.62496 9.33333 5.62496H7.33333C6.23009 5.62496 5.44654 5.62562 4.83722 5.68355Z" fill="#E1A553"/>
<path d="M6.25 10.8333C6.25 11.2935 5.8769 11.6666 5.41666 11.6666C4.95643 11.6666 4.58333 11.2935 4.58333 10.8333C4.58333 10.3731 4.95643 9.99996 5.41666 9.99996C5.8769 9.99996 6.25 10.3731 6.25 10.8333Z" fill="#E1A553"/>
<path d="M9.16666 10.8333C9.16666 11.2935 8.79357 11.6666 8.33333 11.6666C7.87309 11.6666 7.5 11.2935 7.5 10.8333C7.5 10.3731 7.87309 9.99996 8.33333 9.99996C8.79357 9.99996 9.16666 10.3731 9.16666 10.8333Z" fill="#E1A553"/>
<path d="M12.0833 10.8333C12.0833 11.2935 11.7102 11.6666 11.25 11.6666C10.7898 11.6666 10.4167 11.2935 10.4167 10.8333C10.4167 10.3731 10.7898 9.99996 11.25 9.99996C11.7102 9.99996 12.0833 10.3731 12.0833 10.8333Z" fill="#E1A553"/>
</svg>
