<svg width="174" height="224" viewBox="0 0 174 224" fill="none" xmlns="http://www.w3.org/2000/svg">
<path d="M77.2978 21.8513H0V156.826H77.2978V21.8513Z" fill="#A6A5AC"/>
<path d="M84.0459 14.5029H6.74805V149.478H84.0459V14.5029Z" fill="white"/>
<path d="M90.9475 7.15479H13.6497V142.13H90.9475V7.15479Z" fill="#A6A5AC"/>
<path d="M97.8491 0H20.5513V134.975H97.8491V0Z" fill="white"/>
<path d="M82.5123 24.9451H35.7349V28.4258H82.5123V24.9451Z" fill="#1A3248"/>
<path d="M91.4078 38.6748H26.8396V42.1556H91.4078V38.6748Z" fill="#1A3248"/>
<path d="M91.4078 51.6306H26.8396V55.1113H91.4078V51.6306Z" fill="#1A3248"/>
<path d="M91.4078 64.7803H26.8396V68.261H91.4078V64.7803Z" fill="#1A3248"/>
<path d="M91.4078 77.7361H26.8396V81.2168H91.4078V77.7361Z" fill="#1A3248"/>
<path d="M91.4078 90.8857H26.8396V94.3665H91.4078V90.8857Z" fill="#1A3248"/>
<path d="M91.561 103.842H67.7888V107.322H91.561V103.842Z" fill="#1A3248"/>
<path opacity="0.4" d="M57.8198 156.826H77.2976V149.478H84.1992V142.13H90.9475V134.781H97.8491V0H57.8198V156.826Z" fill="#B3A281"/>
<path d="M120.701 124.92H83.8925C76.6842 124.92 70.8562 116.025 70.8562 105.002V98.4275C70.8562 87.4052 76.6842 78.51 83.8925 78.51H120.701C127.909 78.51 133.737 87.4052 133.737 98.4275V105.002C133.737 116.025 127.909 124.92 120.701 124.92ZM83.8925 86.6317C80.3651 86.6317 77.2977 92.0461 77.2977 98.4275V105.002C77.2977 111.384 80.3651 116.798 83.8925 116.798H120.701C124.229 116.798 127.296 111.384 127.296 105.002V98.4275C127.296 92.0461 124.229 86.6317 120.701 86.6317H83.8925Z" fill="#FF9900"/>
<path d="M173.307 213.485C173.307 219.093 169.779 223.54 165.332 223.54H39.4159C34.9682 223.54 31.4407 219.093 31.4407 213.485V113.704C31.4407 108.096 34.9682 103.648 39.4159 103.648H165.332C169.779 103.648 173.307 108.096 173.307 113.704V213.485Z" fill="#A6A5AC"/>
<path d="M173.307 113.704C173.307 108.096 169.779 103.648 165.332 103.648H39.4159C34.9682 103.648 31.4407 108.096 31.4407 113.704V148.511L102.45 178.871L173.46 148.511V113.704H173.307Z" fill="#586273"/>
<path d="M78.8314 96.4937H69.3225V103.455H78.8314V96.4937Z" fill="#FF9900"/>
<path d="M135.271 96.4937H125.762V103.455H135.271V96.4937Z" fill="#FF9900"/>
<path d="M108.892 169.976H95.7019V188.926H108.892V169.976Z" fill="#FF9900"/>
<g opacity="0.7">
<path d="M107.052 169.976H97.5427V186.606H107.052V169.976Z" fill="#FF9900"/>
</g>
<path opacity="0.4" d="M165.331 103.649H135.271V96.6871H133.737C133.124 86.4383 127.603 78.51 120.701 78.51H102.297V86.6317H120.701C123.922 86.6317 126.682 91.0793 127.143 96.6871H125.762V103.649H102.297V223.54H165.178C169.626 223.54 173.153 219.093 173.153 213.485V148.511V113.704C173.307 108.096 169.626 103.649 165.331 103.649Z" fill="#B3A281"/>
</svg>
