<svg width="175" height="224" viewBox="0 0 175 224" fill="none" xmlns="http://www.w3.org/2000/svg">
<path d="M138.284 0H39.4228H18.9003H9.63208V30.8941H18.9003V33.1008V164.621V178.524V180.951C19.5623 187.792 22.2104 195.515 27.9479 195.515C33.6854 195.515 36.554 187.792 36.9954 180.951H155.496V33.1008V19.1984C155.496 8.82687 147.773 0 138.284 0Z" fill="#A6A5AC"/>
<path d="M9.63212 0C16.0316 0 18.9004 9.70953 18.9004 17.2124V31.1147H0.584556V17.2124C0.363884 9.70953 3.23263 0 9.63212 0Z" fill="#1A3248"/>
<path d="M144.021 18.0952H30.5959V174.993H144.021V18.0952Z" fill="white"/>
<path d="M164.544 164.842H155.276H36.9955V178.744C36.9955 186.247 34.1268 195.957 27.7273 195.957H164.323C170.723 195.957 173.591 186.247 173.591 178.744V164.842H164.544Z" fill="#1A3248"/>
<path d="M120.851 36.1902H52.2218V42.5897H120.851V36.1902Z" fill="#1A3248"/>
<path d="M133.65 52.0789H38.9816V58.4784H133.65V52.0789Z" fill="#1A3248"/>
<path d="M133.65 67.3049H38.9816V73.7044H133.65V67.3049Z" fill="#1A3248"/>
<path d="M133.65 82.531H38.9816V88.9305H133.65V82.531Z" fill="#1A3248"/>
<path d="M133.65 97.7578H38.9816V104.157H133.65V97.7578Z" fill="#1A3248"/>
<path d="M133.65 112.984H38.9816V119.383H133.65V112.984Z" fill="#1A3248"/>
<path d="M135.636 127.99H100.77V134.389H135.636V127.99Z" fill="#1A3248"/>
<path d="M140.27 223.541L128.574 213.831L116.658 223.541V180.289H140.27V223.541Z" fill="#FF9900"/>
<path d="M140.27 180.289C140.27 186.909 134.974 192.205 128.354 192.205C121.733 192.205 116.437 186.909 116.437 180.289C116.437 173.669 121.733 168.373 128.354 168.373C134.974 168.373 140.27 173.669 140.27 180.289Z" fill="#F88A1B"/>
<path d="M128.354 189.778C123.057 189.778 118.865 185.585 118.865 180.289C118.865 174.993 123.057 170.8 128.354 170.8C133.65 170.8 137.842 174.993 137.842 180.289C137.842 185.585 133.65 189.778 128.354 189.778Z" fill="#F8D06B"/>
<path opacity="0.4" d="M155.496 164.842V33.3214V19.4191C155.496 8.60617 147.773 0 138.284 0H89.7361V195.736H116.658V223.541L128.795 213.831L140.491 223.541V195.736H164.765C171.164 195.736 174.033 186.026 174.033 178.524V164.621H164.765H155.496V164.842Z" fill="#B3A281"/>
</svg>
