<svg width="48" height="47" viewBox="0 0 48 47" fill="none" xmlns="http://www.w3.org/2000/svg">
<path d="M0.608643 1.63677V5.5399C0.610202 5.9705 0.9608 6.31821 1.3914 6.31656H2.16807V41.4036H1.3914C0.9608 41.4021 0.610366 41.7497 0.608643 42.1803V46.0834C0.610202 46.514 0.960793 46.8618 1.3914 46.8601H46.6132C47.042 46.8593 47.3897 46.5123 47.3914 46.0834V42.1803C47.3899 41.7515 47.042 41.4045 46.6132 41.4036H45.8305V6.31656H46.6132C47.042 6.31577 47.3897 5.96871 47.3914 5.5399V1.63677C47.3899 1.20796 47.042 0.860992 46.6132 0.860107H1.35105C0.898907 0.866001 0.608245 1.23593 0.608643 1.63677ZM2.16807 2.41956H45.8305V4.75711H10.7495C9.68653 4.73354 9.68653 6.34014 10.7495 6.31656H13.0871V29.9379C12.386 30.1527 11.7631 30.5127 11.2673 31.0085C10.4275 31.8483 9.96672 33.0449 9.96672 34.3877V37.432C9.94379 38.4943 11.5491 38.4943 11.5261 37.432V34.3877C11.5262 33.3914 11.8421 32.6388 12.3668 32.1141C12.5686 31.9123 12.8159 31.7525 13.0871 31.6176V41.4036H11.5261V40.598C11.5491 39.5357 9.94378 39.5357 9.96672 40.598V41.4036H3.72749V6.31656H7.62454C8.68749 6.34014 8.68749 4.73351 7.62454 4.75711H2.16807V2.41956ZM14.6465 6.31656H23.2218V14.1685C20.1464 14.5519 17.7593 17.1699 17.7593 20.3484V22.692C17.7593 24.9969 19.0176 27.0073 20.8797 28.0876V29.708H14.6465V6.31656ZM24.7828 6.31656H33.3581V29.708H27.1189V28.0876C28.9809 27.0073 30.2377 24.9969 30.2377 22.692V20.3484C30.2377 17.1721 27.8552 14.5562 24.7828 14.17V6.31656ZM34.9175 6.31656H44.271V41.4036H42.7116C41.6487 41.3801 41.6487 42.9867 42.7116 42.9631H45.8305V45.3007H2.16807V42.9631H39.5912C40.6542 42.9867 40.6542 41.38 39.5912 41.4036H38.0379V34.3877C38.0379 33.0449 37.5772 31.8483 36.7374 31.0085C36.2415 30.5127 35.6186 30.1527 34.9175 29.9379V6.31656ZM23.2218 15.7431V27.3033C20.994 26.9378 19.3202 25.0316 19.3202 22.692V20.3484C19.3202 18.0089 20.994 16.1077 23.2218 15.7431ZM24.7828 15.7448C27.0076 16.1118 28.6783 18.011 28.6783 20.3484V22.692C28.6783 25.0294 27.0076 26.9338 24.7828 27.3019V15.7448ZM22.4391 28.7257C22.6944 28.7917 22.9551 28.8447 23.2218 28.878V31.8858L22.4391 30.3035V28.7257ZM25.5595 28.7257V30.3141L24.7828 31.8431V28.8765C25.0474 28.8432 25.3062 28.7914 25.5595 28.7257ZM14.6465 31.2674H21.1736L23.2218 35.4051V41.4036H14.6465V31.2674ZM26.825 31.2674H33.3581V41.4036H24.7828V35.2878L26.825 31.2674ZM34.9175 31.6191C35.1859 31.7538 35.431 31.9133 35.6318 32.1141C36.1565 32.6388 36.4785 33.3914 36.4785 34.3877V41.4036H34.9175V31.6191Z" fill="#B68C5A"/>
</svg>
