<svg width="20" height="20" viewBox="0 0 20 20" fill="none" xmlns="http://www.w3.org/2000/svg">
<path d="M10.3863 4.86947C10.5128 4.47963 10.7447 4.13242 11.0563 3.86614C11.3679 3.59986 11.7469 3.42504 12.1517 3.36082C12.5565 3.2966 12.9714 3.34561 13.3501 3.50237C13.7288 3.65914 14.0564 3.91763 14.2974 4.24917C14.5384 4.58071 14.683 4.97231 14.7153 5.3809C14.7475 5.78949 14.6658 6.19896 14.4798 6.56417C14.2937 6.92937 14.0106 7.23623 13.6612 7.4504C13.3117 7.66456 12.9099 7.77792 12.5 7.77792V8.33327M12.5277 10.5556V10.6111L12.4723 10.6113V10.5556H12.5277Z" stroke="black" stroke-opacity="0.7" stroke-width="1.33333" stroke-linecap="round" stroke-linejoin="round"/>
<path d="M10.9056 17.823L11.3358 18.0777L10.9056 17.823ZM11.3573 17.0598L10.927 16.8051L11.3573 17.0598ZM8.64268 17.0598L8.2124 17.3145L8.64268 17.0598ZM9.09443 17.823L9.5247 17.5684H9.5247L9.09443 17.823ZM1.98384 13.2611L2.44578 13.0698H2.44578L1.98384 13.2611ZM6.49132 15.8262L6.48271 16.3261L6.49132 15.8262ZM4.23882 15.5161L4.04748 15.9781L4.04748 15.9781L4.23882 15.5161ZM18.0162 13.2611L18.4781 13.4525L18.0162 13.2611ZM13.5087 15.8262L13.5 15.3262L13.5087 15.8262ZM15.7612 15.5161L15.9525 15.9781H15.9525L15.7612 15.5161ZM3.65626 2.28062L3.39501 1.8543V1.8543L3.65626 2.28062ZM2.28067 3.65621L1.85435 3.39496L2.28067 3.65621ZM7.83566 16.0082L8.08705 15.5759L8.08705 15.5759L7.83566 16.0082ZM18.3124 11.5111L18.812 11.5313L18.8464 10.679L18.086 11.0653L18.3124 11.5111ZM5.12861 1.79443L5.62162 1.87777L5.73627 1.19946L5.0557 1.29978L5.12861 1.79443ZM11.3358 18.0777L11.7876 17.3145L10.927 16.8051L10.4753 17.5684L11.3358 18.0777ZM8.2124 17.3145L8.66415 18.0777L9.5247 17.5684L9.07295 16.8051L8.2124 17.3145ZM10.4753 17.5684C10.2662 17.9215 9.73374 17.9215 9.5247 17.5684L8.66415 18.0777C9.2604 19.0851 10.7396 19.0851 11.3358 18.0777L10.4753 17.5684ZM2.16667 9.58329V8.74996H1.16667V9.58329H2.16667ZM1.16667 9.58329C1.16667 10.5472 1.1664 11.2951 1.20748 11.8971C1.24886 12.5037 1.33387 12.9985 1.5219 13.4525L2.44578 13.0698C2.31664 12.758 2.24307 12.3847 2.20516 11.8291C2.16694 11.269 2.16667 10.5608 2.16667 9.58329H1.16667ZM6.49994 15.3262C5.45375 15.3082 4.88397 15.2422 4.43017 15.0542L4.04748 15.9781C4.69418 16.2459 5.43663 16.3081 6.48271 16.3261L6.49994 15.3262ZM1.5219 13.4525C1.99554 14.5959 2.90402 15.5044 4.04748 15.9781L4.43017 15.0542C3.53173 14.682 2.81792 13.9682 2.44578 13.0698L1.5219 13.4525ZM13.5173 16.3261C14.5634 16.3081 15.3058 16.2459 15.9525 15.9781L15.5698 15.0542C15.116 15.2422 14.5462 15.3082 13.5 15.3262L13.5173 16.3261ZM17.5542 13.0698C17.1821 13.9682 16.4683 14.682 15.5698 15.0542L15.9525 15.9781C17.096 15.5044 18.0045 14.5959 18.4781 13.4525L17.5542 13.0698ZM2.16667 8.74996C2.16667 7.37634 2.1672 6.38125 2.24118 5.6032C2.31445 4.83259 2.45623 4.32667 2.70699 3.91746L1.85435 3.39496C1.49112 3.98771 1.3259 4.66473 1.24567 5.50854C1.16614 6.34491 1.16667 7.39571 1.16667 8.74996H2.16667ZM3.39501 1.8543C2.76709 2.23909 2.23914 2.76704 1.85435 3.39496L2.70699 3.91746C3.00933 3.42409 3.42414 3.00928 3.91751 2.70694L3.39501 1.8543ZM9.07295 16.8051C8.90256 16.5173 8.75746 16.2711 8.61737 16.0789C8.47113 15.8782 8.30871 15.7049 8.08705 15.5759L7.58428 16.4404C7.64403 16.4751 7.70992 16.5316 7.80923 16.6679C7.9147 16.8126 8.0324 17.0104 8.2124 17.3145L9.07295 16.8051ZM6.48271 16.3261C6.8463 16.3324 7.08486 16.337 7.26867 16.3573C7.4432 16.3767 7.52618 16.4066 7.58428 16.4404L8.08705 15.5759C7.86373 15.4461 7.62885 15.3911 7.37872 15.3634C7.13787 15.3367 6.84496 15.3322 6.49993 15.3262L6.48271 16.3261ZM11.7876 17.3145C11.9676 17.0104 12.0853 16.8126 12.1907 16.6679C12.2901 16.5316 12.3559 16.4751 12.4157 16.4404L11.9129 15.5759C11.6913 15.7049 11.5288 15.8782 11.3826 16.0789C11.2425 16.2711 11.0974 16.5173 10.927 16.8051L11.7876 17.3145ZM13.5 15.3262C13.155 15.3322 12.8621 15.3367 12.6213 15.3634C12.3711 15.3911 12.1362 15.4461 11.9129 15.5759L12.4157 16.4404C12.4738 16.4066 12.5568 16.3767 12.7313 16.3573C12.9151 16.337 13.1537 16.3324 13.5173 16.3261L13.5 15.3262ZM18.086 11.0653C16.9096 11.6629 15.5782 12 14.1667 12V13C15.7392 13 17.2253 12.6241 18.5389 11.9569L18.086 11.0653ZM14.1667 12C9.3802 12 5.50001 8.11976 5.50001 3.33329H4.50001C4.50001 8.67204 8.82792 13 14.1667 13V12ZM5.50001 3.33329C5.50001 2.83693 5.54168 2.35068 5.62162 1.87777L4.63561 1.7111C4.5464 2.23886 4.50001 2.78085 4.50001 3.33329H5.50001ZM3.91751 2.70694C4.25098 2.50259 4.64898 2.37053 5.20152 2.28909L5.0557 1.29978C4.41625 1.39403 3.87784 1.55843 3.39501 1.8543L3.91751 2.70694ZM17.8128 11.4909C17.7827 12.2389 17.7088 12.6966 17.5542 13.0698L18.4781 13.4525C18.7017 12.9128 18.7805 12.3119 18.812 11.5313L17.8128 11.4909Z" fill="black" fill-opacity="0.7"/>
<path d="M16.3437 2.28063L16.0825 2.70695L16.3437 2.28063ZM17.7193 3.65622L18.1457 3.39497V3.39497L17.7193 3.65622ZM18.3124 11.5111L18.5389 11.9569L18.8002 11.8241L18.812 11.5313L18.3124 11.5111ZM5.12861 1.79444L5.0557 1.29978L4.69617 1.35278L4.6356 1.7111L5.12861 1.79444ZM8.75 2.16663H11.25V1.16663H8.75V2.16663ZM17.8333 8.74996V9.58329H18.8333V8.74996H17.8333ZM11.25 2.16663C12.6236 2.16663 13.6187 2.16715 14.3968 2.24113C15.1674 2.3144 15.6733 2.45618 16.0825 2.70695L16.605 1.85431C16.0123 1.49107 15.3352 1.32585 14.4914 1.24562C13.655 1.1661 12.6042 1.16663 11.25 1.16663V2.16663ZM18.8333 8.74996C18.8333 7.39571 18.8339 6.34491 18.7543 5.50855C18.6741 4.66474 18.5089 3.98771 18.1457 3.39497L17.293 3.91746C17.5438 4.32668 17.6856 4.83259 17.7588 5.6032C17.8328 6.38125 17.8333 7.37635 17.8333 8.74996H18.8333ZM16.0825 2.70695C16.5759 3.00928 16.9907 3.42409 17.293 3.91746L18.1457 3.39497C17.7609 2.76704 17.2329 2.2391 16.605 1.85431L16.0825 2.70695ZM18.086 11.0653C16.9096 11.6629 15.5782 12 14.1667 12V13C15.7392 13 17.2253 12.6241 18.5389 11.9569L18.086 11.0653ZM14.1667 12C9.3802 12 5.5 8.11976 5.5 3.33329H4.5C4.5 8.67205 8.82791 13 14.1667 13V12ZM5.5 3.33329C5.5 2.83693 5.54168 2.35069 5.62161 1.87777L4.6356 1.7111C4.54639 2.23886 4.5 2.78085 4.5 3.33329H5.5ZM8.75 1.16663C7.14966 1.16663 5.9679 1.16533 5.0557 1.29978L5.20152 2.28909C6.02355 2.16793 7.117 2.16663 8.75 2.16663V1.16663ZM18.812 11.5313C18.8334 11.001 18.8333 10.3638 18.8333 9.58329H17.8333C17.8333 10.3711 17.8332 10.9854 17.8128 11.4909L18.812 11.5313Z" fill="black" fill-opacity="0.7"/>
</svg>
