<svg width="46" height="47" viewBox="0 0 46 47" fill="none" xmlns="http://www.w3.org/2000/svg">
<path d="M30.609 43.0268H3.21655C2.61113 43.0268 2.03052 42.7845 1.60243 42.3532C1.17434 41.9218 0.933838 41.3368 0.933838 40.7268V5.46016C0.933838 4.85016 1.17434 4.26514 1.60243 3.83381C2.03052 3.40248 2.61113 3.16016 3.21655 3.16016H30.609C31.2144 3.16016 31.7951 3.40248 32.2232 3.83381C32.6512 4.26514 32.8917 4.85016 32.8917 5.46016V40.7268C32.8917 41.3368 32.6512 41.9218 32.2232 42.3532C31.7951 42.7845 31.2144 43.0268 30.609 43.0268ZM3.21655 4.69349C3.01474 4.69349 2.8212 4.77426 2.67851 4.91804C2.53581 5.06182 2.45564 5.25682 2.45564 5.46016V40.7268C2.45564 40.9302 2.53581 41.1252 2.67851 41.269C2.8212 41.4127 3.01474 41.4935 3.21655 41.4935H30.609C30.8108 41.4935 31.0044 41.4127 31.1471 41.269C31.2898 41.1252 31.3699 40.9302 31.3699 40.7268V5.46016C31.3699 5.25682 31.2898 5.06182 31.1471 4.91804C31.0044 4.77426 30.8108 4.69349 30.609 4.69349H3.21655Z" fill="#D8AE75"/>
<path d="M34.4136 46.8602H7.02111C6.4157 46.8602 5.83508 46.6178 5.40699 46.1865C4.9789 45.7552 4.7384 45.1702 4.7384 44.5602C4.7384 44.3568 4.81857 44.1618 4.96127 44.018C5.10396 43.8743 5.2975 43.7935 5.49931 43.7935C5.70111 43.7935 5.89465 43.8743 6.03735 44.018C6.18004 44.1618 6.26021 44.3568 6.26021 44.5602C6.26021 44.7635 6.34037 44.9585 6.48307 45.1023C6.62577 45.2461 6.81931 45.3268 7.02111 45.3268H34.4136C34.6154 45.3268 34.8089 45.2461 34.9516 45.1023C35.0943 44.9585 35.1745 44.7635 35.1745 44.5602V8.52681C35.1745 8.32347 35.0943 8.12847 34.9516 7.98469C34.8089 7.84091 34.6154 7.76014 34.4136 7.76014C34.2118 7.76014 34.0183 7.67937 33.8756 7.53559C33.7329 7.39181 33.6527 7.19681 33.6527 6.99347C33.6527 6.79014 33.7329 6.59514 33.8756 6.45136C34.0183 6.30758 34.2118 6.22681 34.4136 6.22681C35.019 6.22681 35.5996 6.46913 36.0277 6.90046C36.4558 7.33179 36.6963 7.91681 36.6963 8.52681V44.5602C36.6963 45.1702 36.4558 45.7552 36.0277 46.1865C35.5996 46.6178 35.019 46.8602 34.4136 46.8602Z" fill="#D8AE75"/>
<path d="M7.02103 6.99344C6.81923 6.99344 6.62569 6.91267 6.483 6.76889C6.3403 6.62511 6.26013 6.43011 6.26013 6.22678V1.62677C6.26013 1.42344 6.3403 1.22844 6.483 1.08466C6.62569 0.940881 6.81923 0.860107 7.02103 0.860107C7.22284 0.860107 7.41638 0.940881 7.55907 1.08466C7.70177 1.22844 7.78194 1.42344 7.78194 1.62677V6.22678C7.78194 6.43011 7.70177 6.62511 7.55907 6.76889C7.41638 6.91267 7.22284 6.99344 7.02103 6.99344Z" fill="#D8AE75"/>
<path d="M13.1083 6.99344C12.9065 6.99344 12.713 6.91267 12.5703 6.76889C12.4276 6.62511 12.3474 6.43011 12.3474 6.22678V1.62677C12.3474 1.42344 12.4276 1.22844 12.5703 1.08466C12.713 0.940881 12.9065 0.860107 13.1083 0.860107C13.3101 0.860107 13.5037 0.940881 13.6464 1.08466C13.7891 1.22844 13.8692 1.42344 13.8692 1.62677V6.22678C13.8692 6.43011 13.7891 6.62511 13.6464 6.76889C13.5037 6.91267 13.3101 6.99344 13.1083 6.99344Z" fill="#D8AE75"/>
<path d="M20.7173 6.99344C20.5155 6.99344 20.322 6.91267 20.1793 6.76889C20.0366 6.62511 19.9564 6.43011 19.9564 6.22678V1.62677C19.9564 1.42344 20.0366 1.22844 20.1793 1.08466C20.322 0.940881 20.5155 0.860107 20.7173 0.860107C20.9191 0.860107 21.1127 0.940881 21.2554 1.08466C21.3981 1.22844 21.4782 1.42344 21.4782 1.62677V6.22678C21.4782 6.43011 21.3981 6.62511 21.2554 6.76889C21.1127 6.91267 20.9191 6.99344 20.7173 6.99344Z" fill="#D8AE75"/>
<path d="M26.8046 6.99344C26.6028 6.99344 26.4093 6.91267 26.2666 6.76889C26.1239 6.62511 26.0437 6.43011 26.0437 6.22678V1.62677C26.0437 1.42344 26.1239 1.22844 26.2666 1.08466C26.4093 0.940881 26.6028 0.860107 26.8046 0.860107C27.0064 0.860107 27.1999 0.940881 27.3426 1.08466C27.4853 1.22844 27.5655 1.42344 27.5655 1.62677V6.22678C27.5655 6.43011 27.4853 6.62511 27.3426 6.76889C27.1999 6.91267 27.0064 6.99344 26.8046 6.99344Z" fill="#D8AE75"/>
<path d="M42.0227 39.1935H38.979C38.7772 39.1935 38.5837 39.1127 38.441 38.9689C38.2983 38.8251 38.2181 38.6301 38.2181 38.4268V10.0601C38.2181 9.85679 38.2983 9.66179 38.441 9.51801C38.5837 9.37423 38.7772 9.29346 38.979 9.29346H42.0227C42.2245 9.29346 42.418 9.37423 42.5607 9.51801C42.7034 9.66179 42.7836 9.85679 42.7836 10.0601V38.4268C42.7836 38.6301 42.7034 38.8251 42.5607 38.9689C42.418 39.1127 42.2245 39.1935 42.0227 39.1935ZM39.7399 37.6601H41.2617V10.8268H39.7399V37.6601Z" fill="#D8AE75"/>
<path d="M42.0227 10.8269H38.979C38.7772 10.8269 38.5837 10.7461 38.441 10.6023C38.2983 10.4585 38.2181 10.2635 38.2181 10.0602V6.22687C38.2181 6.02354 38.2983 5.82853 38.441 5.68476C38.5837 5.54098 38.7772 5.46021 38.979 5.46021H42.0227C42.2245 5.46021 42.418 5.54098 42.5607 5.68476C42.7034 5.82853 42.7836 6.02354 42.7836 6.22687V10.0602C42.7836 10.2635 42.7034 10.4585 42.5607 10.6023C42.418 10.7461 42.2245 10.8269 42.0227 10.8269ZM39.7399 9.29354H41.2617V6.99354H39.7399V9.29354Z" fill="#D8AE75"/>
<path d="M44.3052 21.5601C44.1034 21.5601 43.9099 21.4794 43.7672 21.3356C43.6245 21.1918 43.5443 20.9968 43.5443 20.7935V10.8268H42.0225C41.8207 10.8268 41.6272 10.746 41.4845 10.6022C41.3418 10.4585 41.2616 10.2635 41.2616 10.0601C41.2616 9.85679 41.3418 9.66179 41.4845 9.51801C41.6272 9.37423 41.8207 9.29346 42.0225 9.29346H44.3052C44.507 9.29346 44.7005 9.37423 44.8432 9.51801C44.9859 9.66179 45.0661 9.85679 45.0661 10.0601V20.7935C45.0661 20.9968 44.9859 21.1918 44.8432 21.3356C44.7005 21.4794 44.507 21.5601 44.3052 21.5601Z" fill="#D8AE75"/>
<path d="M40.5008 43.7934C40.3412 43.7933 40.1856 43.7426 40.0562 43.6485C39.9267 43.5544 39.8299 43.4216 39.7795 43.269L38.2577 38.669C38.1939 38.4759 38.2089 38.2651 38.2994 38.083C38.3899 37.901 38.5484 37.7627 38.7401 37.6984C38.9318 37.6342 39.141 37.6493 39.3217 37.7404C39.5023 37.8316 39.6396 37.9913 39.7034 38.1845L40.5008 40.6026L41.3013 38.1845C41.3329 38.0888 41.3828 38.0004 41.4483 37.9242C41.5138 37.848 41.5936 37.7856 41.683 37.7404C41.7725 37.6953 41.8699 37.6684 41.9697 37.6611C42.0695 37.6539 42.1697 37.6666 42.2646 37.6984C42.3595 37.7302 42.4473 37.7806 42.5229 37.8466C42.5985 37.9126 42.6605 37.9929 42.7053 38.083C42.7501 38.1732 42.7769 38.2713 42.784 38.3719C42.7912 38.4724 42.7786 38.5734 42.747 38.669L41.2252 43.269C41.1746 43.4221 41.0773 43.5552 40.9473 43.6494C40.8172 43.7435 40.661 43.7939 40.5008 43.7934Z" fill="#D8AE75"/>
<path d="M10.8256 17.7267C10.6238 17.7267 10.4303 17.646 10.2876 17.5022C10.1449 17.3584 10.0647 17.1634 10.0647 16.9601V10.8267C10.0647 10.6234 10.1449 10.4284 10.2876 10.2846C10.4303 10.1408 10.6238 10.0601 10.8256 10.0601C11.0274 10.0601 11.2209 10.1408 11.3636 10.2846C11.5063 10.4284 11.5865 10.6234 11.5865 10.8267V16.9601C11.5865 17.1634 11.5063 17.3584 11.3636 17.5022C11.2209 17.646 11.0274 17.7267 10.8256 17.7267Z" fill="#D8AE75"/>
<path d="M13.1082 11.5934H8.54276C8.34096 11.5934 8.14742 11.5126 8.00472 11.3688C7.86203 11.2251 7.78186 11.0301 7.78186 10.8267C7.78186 10.6234 7.86203 10.4284 8.00472 10.2846C8.14742 10.1408 8.34096 10.0601 8.54276 10.0601H13.1082C13.31 10.0601 13.5035 10.1408 13.6462 10.2846C13.7889 10.4284 13.8691 10.6234 13.8691 10.8267C13.8691 11.0301 13.7889 11.2251 13.6462 11.3688C13.5035 11.5126 13.31 11.5934 13.1082 11.5934Z" fill="#D8AE75"/>
<path d="M13.8692 17.7267C13.7779 17.7264 13.6872 17.71 13.6014 17.6784C13.5077 17.6431 13.4219 17.5894 13.3488 17.5206C13.2757 17.4518 13.2168 17.3691 13.1754 17.2773C13.1341 17.1855 13.1111 17.0864 13.1078 16.9857C13.1045 16.8849 13.121 16.7845 13.1563 16.6902L15.439 10.5569C15.474 10.4625 15.527 10.3761 15.5952 10.3024C15.6633 10.2287 15.7452 10.1693 15.8361 10.1275C15.9271 10.0857 16.0253 10.0624 16.1252 10.0588C16.225 10.0553 16.3246 10.0716 16.4183 10.1068C16.5119 10.1421 16.5977 10.1955 16.6708 10.2642C16.744 10.3329 16.8029 10.4154 16.8444 10.507C16.8859 10.5986 16.909 10.6976 16.9126 10.7982C16.9161 10.8988 16.8999 10.9992 16.8649 11.0935L14.5822 17.2269C14.5282 17.3735 14.4309 17.5 14.3035 17.5894C14.176 17.6787 14.0245 17.7267 13.8692 17.7267Z" fill="#D8AE75"/>
<path d="M18.4345 17.7268C18.2796 17.727 18.1284 17.6795 18.001 17.5907C17.8736 17.502 17.7761 17.3761 17.7216 17.23L15.4389 11.0967C15.3682 10.9062 15.3756 10.6952 15.4594 10.5101C15.5431 10.3251 15.6964 10.1812 15.8855 10.11C16.0746 10.0388 16.284 10.0463 16.4677 10.1307C16.6513 10.2151 16.7942 10.3695 16.8648 10.56L19.1475 16.6934C19.1828 16.7877 19.1992 16.8881 19.1959 16.9889C19.1927 17.0896 19.1697 17.1887 19.1283 17.2805C19.087 17.3723 19.0281 17.455 18.955 17.5238C18.8819 17.5926 18.7961 17.6462 18.7024 17.6816C18.6164 17.7122 18.5257 17.7275 18.4345 17.7268Z" fill="#D8AE75"/>
<path d="M25.2827 17.7267C25.1646 17.7267 25.0481 17.699 24.9425 17.6458C24.8368 17.5926 24.7449 17.5153 24.674 17.4201L20.1086 11.2867C19.9875 11.1241 19.9355 10.9196 19.9641 10.7183C19.9926 10.517 20.0993 10.3354 20.2608 10.2134C20.4222 10.0914 20.6252 10.039 20.8249 10.0678C21.0247 10.0965 21.205 10.2041 21.326 10.3667L25.8915 16.5001C25.9762 16.614 26.0279 16.7494 26.0406 16.8912C26.0533 17.033 26.0265 17.1756 25.9633 17.3029C25.9001 17.4303 25.803 17.5374 25.6828 17.6122C25.5626 17.6871 25.4241 17.7267 25.2827 17.7267Z" fill="#D8AE75"/>
<path d="M20.7173 17.7267C20.576 17.7267 20.4375 17.6871 20.3173 17.6122C20.1971 17.5374 20.0999 17.4303 20.0368 17.3029C19.9736 17.1756 19.9468 17.033 19.9595 16.8912C19.9722 16.7494 20.0238 16.614 20.1086 16.5001L24.674 10.3667C24.734 10.2862 24.8091 10.2183 24.8951 10.167C24.981 10.1157 25.0762 10.082 25.1751 10.0678C25.274 10.0535 25.3748 10.0591 25.4716 10.084C25.5684 10.109 25.6593 10.153 25.7393 10.2134C25.8192 10.2738 25.8866 10.3495 25.9375 10.4361C25.9884 10.5227 26.0219 10.6186 26.036 10.7183C26.0501 10.818 26.0446 10.9195 26.0198 11.017C25.995 11.1145 25.9514 11.2062 25.8915 11.2867L21.326 17.4201C21.2552 17.5153 21.1633 17.5926 21.0576 17.6458C20.952 17.699 20.8355 17.7267 20.7173 17.7267Z" fill="#D8AE75"/>
<path d="M17.6737 16.1935H14.63C14.4282 16.1935 14.2347 16.1127 14.092 15.9689C13.9493 15.8252 13.8691 15.6302 13.8691 15.4268C13.8691 15.2235 13.9493 15.0285 14.092 14.8847C14.2347 14.7409 14.4282 14.6602 14.63 14.6602H17.6737C17.8755 14.6602 18.069 14.7409 18.2117 14.8847C18.3544 15.0285 18.4346 15.2235 18.4346 15.4268C18.4346 15.6302 18.3544 15.8252 18.2117 15.9689C18.069 16.1127 17.8755 16.1935 17.6737 16.1935Z" fill="#D8AE75"/>
<path d="M18.4346 22.3268H7.02103C6.81923 22.3268 6.62569 22.246 6.483 22.1022C6.3403 21.9585 6.26013 21.7635 6.26013 21.5601C6.26013 21.3568 6.3403 21.1618 6.483 21.018C6.62569 20.8742 6.81923 20.7935 7.02103 20.7935H18.4346C18.6364 20.7935 18.8299 20.8742 18.9726 21.018C19.1153 21.1618 19.1955 21.3568 19.1955 21.5601C19.1955 21.7635 19.1153 21.9585 18.9726 22.1022C18.8299 22.246 18.6364 22.3268 18.4346 22.3268Z" fill="#D8AE75"/>
<path d="M26.8045 26.16H7.02103C6.81923 26.16 6.62569 26.0793 6.483 25.9355C6.3403 25.7917 6.26013 25.5967 6.26013 25.3934C6.26013 25.19 6.3403 24.995 6.483 24.8513C6.62569 24.7075 6.81923 24.6267 7.02103 24.6267H26.8045C27.0063 24.6267 27.1998 24.7075 27.3425 24.8513C27.4852 24.995 27.5654 25.19 27.5654 25.3934C27.5654 25.5967 27.4852 25.7917 27.3425 25.9355C27.1998 26.0793 27.0063 26.16 26.8045 26.16Z" fill="#D8AE75"/>
<path d="M26.8045 29.9935H7.02103C6.81923 29.9935 6.62569 29.9128 6.483 29.769C6.3403 29.6252 6.26013 29.4302 6.26013 29.2269C6.26013 29.0235 6.3403 28.8285 6.483 28.6848C6.62569 28.541 6.81923 28.4602 7.02103 28.4602H26.8045C27.0063 28.4602 27.1998 28.541 27.3425 28.6848C27.4852 28.8285 27.5654 29.0235 27.5654 29.2269C27.5654 29.4302 27.4852 29.6252 27.3425 29.769C27.1998 29.9128 27.0063 29.9935 26.8045 29.9935Z" fill="#D8AE75"/>
<path d="M26.8045 33.8268H7.02103C6.81923 33.8268 6.62569 33.746 6.483 33.6022C6.3403 33.4585 6.26013 33.2635 6.26013 33.0601C6.26013 32.8568 6.3403 32.6618 6.483 32.518C6.62569 32.3742 6.81923 32.2935 7.02103 32.2935H26.8045C27.0063 32.2935 27.1998 32.3742 27.3425 32.518C27.4852 32.6618 27.5654 32.8568 27.5654 33.0601C27.5654 33.2635 27.4852 33.4585 27.3425 33.6022C27.1998 33.746 27.0063 33.8268 26.8045 33.8268Z" fill="#D8AE75"/>
<path d="M26.8045 37.66H7.02103C6.81923 37.66 6.62569 37.5793 6.483 37.4355C6.3403 37.2917 6.26013 37.0967 6.26013 36.8934C6.26013 36.69 6.3403 36.495 6.483 36.3513C6.62569 36.2075 6.81923 36.1267 7.02103 36.1267H26.8045C27.0063 36.1267 27.1998 36.2075 27.3425 36.3513C27.4852 36.495 27.5654 36.69 27.5654 36.8934C27.5654 37.0967 27.4852 37.2917 27.3425 37.4355C27.1998 37.5793 27.0063 37.66 26.8045 37.66Z" fill="#D8AE75"/>
</svg>
