<svg width="216" height="216" viewBox="0 0 216 216" fill="none" xmlns="http://www.w3.org/2000/svg">
<path d="M88.8322 29.3761L47.7101 82.8016L158.302 55.3091L96.7032 27.4019C95.3612 26.7928 93.8525 26.6564 92.423 27.015C90.9936 27.3735 89.7278 28.2058 88.8322 29.3761Z" fill="#EBEBEB"/>
<path d="M47.1269 83.1818L88.6507 29.2423C89.5767 28.0294 90.8881 27.1679 92.369 26.7996C93.8499 26.4314 95.412 26.5783 96.7983 27.2162L159.006 55.3955L47.1269 83.1818ZM93.9989 27.0218C93.0329 27.0224 92.0802 27.2466 91.2154 27.6768C90.3505 28.107 89.5969 28.7315 89.0136 29.5015L48.289 82.4258L157.611 55.2487L96.6125 27.6007C95.7911 27.2304 94.8999 27.0403 93.9989 27.0434V27.0218Z" fill="#E0E0E0"/>
<path d="M47.7072 82.8035L158.689 55.215L173.641 115.363C173.937 116.554 173.748 117.814 173.115 118.865C172.482 119.917 171.458 120.674 170.267 120.97L68.2655 146.326C67.0747 146.622 65.815 146.433 64.7636 145.8C63.7123 145.167 62.9553 144.143 62.6593 142.952L47.7072 82.8035Z" fill="#F0F0F0"/>
<path d="M151.857 58.5102L113.409 97.7919L55.296 84.711L48.6475 53.8878C48.2796 52.2978 48.5512 50.627 49.4037 49.2354C50.2563 47.8438 51.6215 46.843 53.2051 46.4487L137.272 25.5529C138.065 25.3552 138.889 25.3157 139.696 25.4367C140.504 25.5578 141.28 25.837 141.98 26.2583C142.68 26.6796 143.29 27.2348 143.775 27.8921C144.26 28.5494 144.61 29.2959 144.806 30.0889L151.857 58.5102Z" fill="white"/>
<path d="M108.13 94.7031L62.4715 142.413C62.6327 143.062 62.9202 143.673 63.3175 144.21C63.7149 144.748 64.2142 145.202 64.7871 145.547C65.36 145.891 65.9952 146.12 66.6564 146.219C67.3175 146.318 67.9918 146.286 68.6405 146.124L169.858 120.96C171.168 120.634 172.294 119.802 172.99 118.646C173.686 117.49 173.894 116.105 173.569 114.795L173.474 114.415L113.772 93.3552C112.801 93.0123 111.753 92.9571 110.752 93.1962C109.751 93.4353 108.84 93.9586 108.13 94.7031Z" fill="#E0E0E0"/>
<path d="M93.5425 50.9993L60.6545 59.1809L61.4898 62.5389L94.3778 54.3573L93.5425 50.9993Z" fill="#E0E0E0"/>
<path d="M135.741 49.5417L62.7716 67.6946L63.7154 71.4885L136.685 53.3357L135.741 49.5417Z" fill="#E0E0E0"/>
<path d="M138.05 58.8108L65.0797 76.9636L66.0235 80.7576L138.993 62.6047L138.05 58.8108Z" fill="#E0E0E0"/>
<path d="M139.584 71.0943L137.298 73.3795L76.0406 89.3938L68.0357 87.5232L67.7333 86.6549L140.469 68.5627L140.784 69.8199L139.584 71.0943Z" fill="#E0E0E0"/>
<path d="M123.915 87.0568L96.3187 93.9169L87.8818 91.9902L129.125 81.7302L123.915 87.0568Z" fill="#E0E0E0"/>
<path d="M106.462 96.4397C106.462 96.4397 106.432 96.4872 106.358 96.5693L106.03 96.9279L104.76 98.2887L100.056 103.27C96.0725 107.464 90.5515 113.262 84.4387 119.617C78.3259 125.971 72.7099 131.674 68.6146 135.76C66.5669 137.804 64.8994 139.454 63.7416 140.581L62.4067 141.877L62.0525 142.21C62.0156 142.251 61.9734 142.288 61.9272 142.318C61.9591 142.273 61.9953 142.231 62.0352 142.193L62.3722 141.843L63.6682 140.517L68.4936 135.648C72.5587 131.531 78.1445 125.816 84.2703 119.457C90.396 113.098 95.9343 107.361 99.9303 103.157L104.682 98.2282L105.978 96.8976L106.324 96.5563C106.419 96.4743 106.462 96.4397 106.462 96.4397Z" fill="#FAFAFA"/>
<path d="M173.474 114.407C173.452 114.467 160.721 110.048 145.04 104.535C129.358 99.0232 116.662 94.5045 116.683 94.444C116.705 94.3835 129.436 98.7985 145.117 104.311C160.799 109.823 173.496 114.342 173.474 114.407Z" fill="#FAFAFA"/>
<path d="M153.684 56.6179C153.66 56.6564 153.633 56.6926 153.602 56.7259L153.36 57.024L152.336 58.1602L148.522 62.303C145.29 65.7893 140.789 70.5672 135.743 75.7814C130.697 80.9957 126.04 85.6483 122.662 88.992L118.64 92.9318L117.534 93.9902L117.245 94.2624C117.176 94.3229 117.141 94.3531 117.137 94.3488C117.164 94.3119 117.195 94.2772 117.228 94.2451L117.5 93.9557L118.575 92.867L122.541 88.8754C125.893 85.5014 130.503 80.8272 135.549 75.6173C140.594 70.4074 145.113 65.664 148.379 62.208L152.245 58.117L153.304 57.011L153.585 56.7259C153.613 56.686 153.647 56.6497 153.684 56.6179Z" fill="#FAFAFA"/>
<path d="M106.462 96.4397C106.411 96.4368 106.36 96.4281 106.311 96.4138L105.879 96.3101L104.151 95.8781C102.673 95.5066 100.526 94.9839 97.8696 94.3618C92.5603 93.1047 85.1947 91.4847 77.0558 89.7221C68.917 87.9595 61.5557 86.3136 56.255 85.0133C53.6026 84.3653 51.4598 83.821 49.9867 83.4235L48.289 82.9613L47.857 82.836C47.8059 82.8252 47.7566 82.8078 47.7101 82.7842L47.8613 82.8144L48.2933 82.9138L50.0213 83.3458C51.503 83.7173 53.6501 84.2357 56.3069 84.8621C61.6162 86.1192 68.9774 87.7392 77.1206 89.5018C85.2638 91.2643 92.6208 92.9103 97.9214 94.2106C100.574 94.8586 102.717 95.3986 104.19 95.8003L105.883 96.2626L106.315 96.3879L106.462 96.4397Z" fill="#FAFAFA"/>
<path d="M151.857 58.5102C151.857 58.5102 151.813 58.3676 151.74 58.0782L151.425 56.8556C151.148 55.7713 150.746 54.1859 150.228 52.1425L145.878 34.8107C145.647 33.8948 145.413 32.9574 145.174 31.9983C145.057 31.5231 144.936 31.035 144.811 30.5468C144.75 30.3006 144.69 30.0543 144.612 29.8167C144.544 29.5742 144.458 29.3373 144.353 29.1083C143.925 28.1391 143.251 27.2983 142.399 26.6688C141.547 26.0392 140.545 25.6427 139.493 25.5183C138.947 25.4428 138.393 25.4428 137.847 25.5183C137.303 25.6134 136.75 25.7646 136.192 25.8985L132.801 26.7625L125.712 28.5121L94.2149 36.3745L62.6789 44.2023L55.5984 45.9563L53.8704 46.3883C53.3095 46.5048 52.7602 46.671 52.2288 46.8851C51.2039 47.3293 50.3197 48.0447 49.6714 48.9543C49.3576 49.3964 49.1021 49.877 48.911 50.3843C48.7329 50.8854 48.6154 51.4061 48.5611 51.9351C48.4358 52.9935 48.7296 54.0131 48.937 55.0196C49.369 57.0356 49.7822 58.9667 50.1768 60.8127C51.7536 68.1956 53.028 74.1659 53.9093 78.3001C54.3413 80.3651 54.6826 81.9634 54.9158 83.0521C55.0238 83.5921 55.1102 84.0068 55.1707 84.2919C55.2312 84.577 55.2485 84.7239 55.2485 84.7239C55.2485 84.7239 55.2096 84.5814 55.1448 84.2919C55.08 84.0025 54.9893 83.5964 54.8683 83.0607C54.6264 81.9678 54.2765 80.3694 53.8229 78.3087C52.92 74.1788 51.6197 68.2086 50.0126 60.8387C49.6152 58.994 49.1918 57.063 48.7555 55.0455C48.5482 54.0519 48.2458 52.9979 48.3754 51.9049C48.425 51.3578 48.5441 50.8192 48.7296 50.3022C48.927 49.7787 49.1897 49.2823 49.5115 48.8247C49.8388 48.359 50.23 47.9416 50.6736 47.5849C51.1178 47.2146 51.6142 46.9118 52.1467 46.6863C52.6873 46.4657 53.2469 46.2951 53.8186 46.1766L55.5466 45.7446L62.64 43.9907L94.176 36.1455L125.712 28.3177L132.792 26.5638L136.184 25.7257C136.741 25.5875 137.285 25.4406 137.856 25.3412C138.688 25.2168 139.537 25.2597 140.353 25.4674C141.169 25.6751 141.936 26.0434 142.608 26.5508C143.462 27.198 144.138 28.0531 144.569 29.0348C144.677 29.2707 144.767 29.5149 144.837 29.7649C144.914 30.0111 144.975 30.2574 145.035 30.5036C145.156 30.9918 145.273 31.4799 145.394 31.9595C145.632 32.9185 145.86 33.8559 146.089 34.7718L150.366 52.1339C150.863 54.1815 151.252 55.7713 151.515 56.8556C151.645 57.3956 151.744 57.806 151.809 58.0868C151.874 58.3676 151.857 58.5102 151.857 58.5102Z" fill="#E0E0E0"/>
<path d="M195.264 193.968C195.264 194.033 156.194 194.085 108 194.085C59.8061 194.085 20.736 194.037 20.736 193.968C20.736 193.899 59.8018 193.847 108 193.847C156.198 193.847 195.264 193.908 195.264 193.968Z" fill="#263238"/>
<path d="M103.555 35.7092L99.2823 38.9622L99.4896 45.1743L95.58 42.0682L93.42 43.9172L85.212 33.7825L103.555 35.7092Z" fill="#E1A553"/>
<path d="M97.6752 40.2842C97.6752 40.4743 99.4896 45.1744 99.4896 45.1744L95.58 42.0683L97.6752 40.2842Z" fill="#E1A553"/>
<g opacity="0.3">
<path d="M97.6752 40.2842C97.6752 40.4743 99.4896 45.1744 99.4896 45.1744L95.58 42.0683L97.6752 40.2842Z" fill="black"/>
</g>
<path d="M85.212 33.7825L97.6752 40.2841L99.4896 45.1743L99.2823 38.9622L85.212 33.7825Z" fill="#E1A553"/>
<path opacity="0.1" d="M85.212 33.7825L97.6752 40.2841L99.4896 45.1743L99.2823 38.9622L85.212 33.7825Z" fill="black"/>
<path d="M119.772 117.599C119.004 117.574 118.249 117.39 117.556 117.059C118.324 117.084 119.078 117.268 119.772 117.599Z" fill="#263238"/>
<path d="M123.306 118.463C123.306 118.528 122.982 118.506 122.619 118.42C122.256 118.334 121.971 118.204 121.984 118.139C121.997 118.074 122.308 118.096 122.675 118.187C123.042 118.277 123.323 118.398 123.306 118.463Z" fill="#263238"/>
<path d="M108.721 44.3621C108.338 44.3676 107.957 44.3077 107.594 44.1849C107.213 44.1382 106.844 44.0226 106.505 43.8437C106.89 43.7931 107.282 43.8315 107.65 43.956C108.035 44.0031 108.402 44.1424 108.721 44.3621Z" fill="#263238"/>
<path d="M112.903 46.155C112.178 45.9172 111.493 45.5737 110.868 45.1355C111.254 45.1722 111.626 45.2995 111.953 45.507C112.519 45.7921 112.938 46.0989 112.903 46.155Z" fill="#263238"/>
<path d="M116.528 48.9025C116.48 48.95 116.096 48.626 115.612 48.22C115.128 47.8139 114.748 47.4683 114.804 47.4121C115.172 47.5423 115.505 47.7568 115.776 48.0385C116.247 48.4532 116.575 48.8593 116.528 48.9025Z" fill="#263238"/>
<path d="M119.292 52.5098C119.232 52.54 118.947 52.121 118.601 51.6026C118.359 51.3055 118.169 50.9695 118.04 50.609C118.087 50.5701 118.45 50.9416 118.8 51.473C119.044 51.7748 119.213 52.1301 119.292 52.5098Z" fill="#263238"/>
<path d="M120.861 56.7734C120.675 56.4384 120.547 56.0749 120.48 55.6977C120.336 55.3417 120.256 54.9629 120.243 54.5789C120.476 54.8898 120.634 55.2506 120.705 55.6329C120.85 55.9944 120.904 56.3862 120.861 56.7734Z" fill="#263238"/>
<path d="M121.094 61.3096C121.017 60.9345 121.001 60.5494 121.046 60.1691C121.014 59.7873 121.049 59.4026 121.15 59.033C121.282 59.3977 121.328 59.788 121.284 60.1734C121.311 60.5619 121.246 60.9512 121.094 61.3096Z" fill="#263238"/>
<path d="M119.915 65.6901C119.961 65.3108 120.069 64.9417 120.234 64.5971C120.322 64.2267 120.468 63.8725 120.666 63.5474C120.687 63.9366 120.609 64.3247 120.437 64.6749C120.349 65.0512 120.17 65.3999 119.915 65.6901Z" fill="#263238"/>
<path d="M117.275 69.3793C117.232 69.3275 117.569 68.9473 117.979 68.4807C118.39 68.0142 118.718 67.6167 118.774 67.6643C118.651 68.0343 118.439 68.3682 118.156 68.6363C117.737 69.1201 117.318 69.4268 117.275 69.3793Z" fill="#263238"/>
<path d="M113.465 71.8331C113.757 71.5863 114.086 71.3879 114.441 71.2456C114.76 71.034 115.112 70.8764 115.482 70.7791C115.231 71.078 114.911 71.3108 114.549 71.4573C114.224 71.6701 113.852 71.7992 113.465 71.8331Z" fill="#263238"/>
<path d="M109.032 72.7877C109.394 72.6548 109.775 72.5833 110.16 72.576C110.534 72.4902 110.919 72.4654 111.3 72.5026C110.961 72.6948 110.58 72.8002 110.19 72.8093C109.809 72.9007 109.41 72.8932 109.032 72.7877Z" fill="#263238"/>
<path d="M104.583 71.9453C105.322 72.0991 106.045 72.3204 106.743 72.6063C106.356 72.6546 105.963 72.601 105.602 72.4508C105.224 72.3747 104.872 72.2003 104.583 71.9453Z" fill="#263238"/>
<path d="M101.429 68.8176C101.494 68.796 101.693 69.2496 102.047 69.7594C102.401 70.2692 102.743 70.6234 102.695 70.6882C102.648 70.753 102.224 70.429 101.853 69.8976C101.591 69.5972 101.442 69.2157 101.429 68.8176Z" fill="#263238"/>
<path d="M103.347 65.2797C103.347 65.3488 102.876 65.5 102.384 65.8499C101.892 66.1998 101.628 66.6362 101.568 66.6016C101.507 66.567 101.697 66.0486 102.246 65.6598C102.551 65.3975 102.945 65.2615 103.347 65.2797Z" fill="#263238"/>
<path d="M107.253 66.8996C107.192 66.9341 106.916 66.5108 106.466 66.0961C106.017 65.6813 105.559 65.474 105.602 65.4092C106.004 65.4408 106.378 65.6247 106.648 65.9233C106.958 66.1673 107.172 66.5131 107.253 66.8996Z" fill="#263238"/>
<path d="M107.4 71.3103C107.432 70.9339 107.503 70.5618 107.611 70.2C107.644 69.8222 107.714 69.4488 107.823 69.0854C107.939 69.4627 107.939 69.866 107.823 70.2432C107.793 70.6336 107.646 71.0057 107.4 71.3103Z" fill="#263238"/>
<path d="M104.44 74.7014C104.401 74.6453 104.795 74.3213 105.265 73.9195C105.736 73.5177 106.129 73.1721 106.16 73.2153C106.19 73.2585 105.909 73.6819 105.421 74.0793C104.933 74.4768 104.475 74.7576 104.44 74.7014Z" fill="#263238"/>
<path d="M100.401 76.801C100.687 76.5424 101.022 76.344 101.386 76.2178C101.718 76.0219 102.087 75.8969 102.47 75.8506C101.854 76.308 101.15 76.6317 100.401 76.801Z" fill="#263238"/>
<path d="M96.336 78.8659C96.3015 78.8097 96.7119 78.503 97.2562 78.1747C97.5737 77.9531 97.9368 77.8055 98.3189 77.7427C98.3535 77.8075 97.9128 78.071 97.3728 78.382C97.0643 78.6132 96.7113 78.7779 96.336 78.8659Z" fill="#263238"/>
<path d="M92.88 81.8381C92.8325 81.7949 93.1306 81.3716 93.5842 80.9266C93.8344 80.6303 94.1491 80.3953 94.5043 80.2397C94.5475 80.2916 94.1976 80.6717 93.7527 81.1037C93.3077 81.5357 92.9491 81.8813 92.88 81.8381Z" fill="#263238"/>
<path d="M90.288 85.562C90.3604 85.1807 90.5201 84.8215 90.7546 84.5122C91.0872 83.9722 91.4285 83.5834 91.4803 83.6223C91.3683 83.9893 91.1912 84.3331 90.9576 84.6375C90.6293 85.1689 90.3485 85.5922 90.288 85.562Z" fill="#263238"/>
<path d="M88.6291 89.7957C88.6071 89.4087 88.6782 89.022 88.8365 88.6681C88.9178 88.2881 89.088 87.9328 89.3333 87.6313C89.2068 88.3822 88.9695 89.1102 88.6291 89.7913V89.7957Z" fill="#263238"/>
<path d="M88.033 94.3058C87.8763 93.5483 87.9301 92.7625 88.1885 92.0334C88.2543 92.4108 88.2543 92.7966 88.1885 93.1739C88.2035 93.5574 88.1508 93.9405 88.033 94.3058Z" fill="#263238"/>
<path d="M88.6291 98.8113C88.4352 98.4773 88.3131 98.1065 88.2706 97.7227C88.1436 97.355 88.1109 96.9614 88.1755 96.5779C88.3429 96.9238 88.4537 97.2942 88.5039 97.6752C88.6236 98.0412 88.6662 98.428 88.6291 98.8113Z" fill="#263238"/>
<path d="M90.3873 103.002C90.3312 103.036 90.0245 102.622 89.7437 102.052C89.5353 101.724 89.4093 101.35 89.3765 100.963C89.6254 101.255 89.8213 101.588 89.9553 101.948C90.1601 102.271 90.3064 102.628 90.3873 103.002Z" fill="#263238"/>
<path d="M93.1176 106.644C93.0744 106.687 92.6856 106.358 92.2536 105.875C91.9755 105.603 91.7627 105.273 91.6315 104.907C91.6877 104.864 92.029 105.244 92.4351 105.719C92.8411 106.194 93.1651 106.596 93.1176 106.644Z" fill="#263238"/>
<path d="M96.6255 109.538C96.2501 109.437 95.9037 109.249 95.6146 108.989C95.1048 108.618 94.7506 108.246 94.7852 108.195C95.1418 108.338 95.4708 108.543 95.7572 108.799C96.2583 109.167 96.66 109.482 96.6255 109.538Z" fill="#263238"/>
<path d="M100.729 111.499C100.341 111.497 99.9584 111.4 99.6149 111.218C99.2402 111.114 98.8974 110.918 98.6169 110.648C98.9953 110.704 99.3617 110.822 99.7013 110.998C100.068 111.109 100.415 111.279 100.729 111.499Z" fill="#263238"/>
<path d="M103.015 112.083C103.015 112.143 102.976 112.195 102.954 112.191C102.933 112.186 102.924 112.13 102.954 112.065C102.985 112.001 102.993 111.953 103.015 111.957C103.036 111.962 103.028 112.018 103.015 112.083Z" fill="#263238"/>
<path d="M99.7118 100.769L94.9877 99.2178L94.0226 102.156L98.7467 103.708L99.7118 100.769Z" fill="#E1A553"/>
<g opacity="0.3">
<path d="M99.7118 100.769L94.9877 99.2178L94.0226 102.156L98.7467 103.708L99.7118 100.769Z" fill="black"/>
</g>
<path d="M99.7013 100.777C98.818 101.22 97.9024 101.596 96.9624 101.9L96.8804 101.931L96.8285 101.861L96.7464 101.758C96.091 100.961 95.5001 100.113 94.9796 99.2219C95.6917 99.9689 96.3459 100.769 96.9365 101.615L97.0143 101.719L96.8804 101.68C97.7949 101.304 98.7382 101.002 99.7013 100.777Z" fill="#E1A553"/>
<g opacity="0.1">
<path d="M99.7013 100.777C98.818 101.22 97.9024 101.596 96.9624 101.9L96.8804 101.931L96.8285 101.861L96.7464 101.758C96.091 100.961 95.5001 100.113 94.9796 99.2219C95.6917 99.9689 96.3459 100.769 96.9365 101.615L97.0143 101.719L96.8804 101.68C97.7949 101.304 98.7382 101.002 99.7013 100.777Z" fill="black"/>
</g>
<path d="M96.336 101.023C96.0108 101.316 95.6344 101.546 95.2257 101.701C94.8493 101.925 94.4372 102.081 94.0075 102.164C94.3356 101.873 94.713 101.643 95.1221 101.485C95.4975 101.263 95.908 101.107 96.336 101.023Z" fill="#E1A553"/>
<g opacity="0.1">
<path d="M96.336 101.023C96.0108 101.316 95.6344 101.546 95.2257 101.701C94.8493 101.925 94.4372 102.081 94.0075 102.164C94.3356 101.873 94.713 101.643 95.1221 101.485C95.4975 101.263 95.908 101.107 96.336 101.023Z" fill="black"/>
</g>
<path d="M98.82 103.741C98.5556 103.415 98.3508 103.045 98.2152 102.648C97.9301 102.004 97.74 101.451 97.8264 101.46C98.0915 101.786 98.2976 102.156 98.4355 102.553C98.6368 102.921 98.7672 103.324 98.82 103.741Z" fill="#E1A553"/>
<g opacity="0.1">
<path d="M98.82 103.741C98.5556 103.415 98.3508 103.045 98.2152 102.648C97.9301 102.004 97.74 101.451 97.8264 101.46C98.0915 101.786 98.2976 102.156 98.4355 102.553C98.6368 102.921 98.7672 103.324 98.82 103.741Z" fill="black"/>
</g>
<path d="M118.975 112.281L106.827 108.292L104.344 115.852L116.493 119.841L118.975 112.281Z" fill="#E1A553"/>
<path d="M118.964 112.29C118.791 112.389 118.609 112.472 118.42 112.536L116.908 113.128C115.612 113.616 113.845 114.281 111.853 115.011L111.771 115.042L111.72 114.973L111.517 114.705C110.195 112.977 109.002 111.365 108.151 110.203L107.136 108.825C107.006 108.66 106.892 108.484 106.795 108.298C106.953 108.441 107.098 108.599 107.227 108.769L108.285 110.104C109.171 111.236 110.38 112.812 111.707 114.562L111.91 114.826L111.776 114.787C113.763 114.061 115.556 113.422 116.852 112.972L118.39 112.45C118.576 112.378 118.768 112.325 118.964 112.29Z" fill="#E1A553"/>
<g opacity="0.2">
<path d="M118.964 112.29C118.791 112.389 118.609 112.472 118.42 112.536L116.908 113.128C115.612 113.616 113.845 114.281 111.853 115.011L111.771 115.042L111.72 114.973L111.517 114.705C110.195 112.977 109.002 111.365 108.151 110.203L107.136 108.825C107.006 108.66 106.892 108.484 106.795 108.298C106.953 108.441 107.098 108.599 107.227 108.769L108.285 110.104C109.171 111.236 110.38 112.812 111.707 114.562L111.91 114.826L111.776 114.787C113.763 114.061 115.556 113.422 116.852 112.972L118.39 112.45C118.576 112.378 118.768 112.325 118.964 112.29Z" fill="black"/>
</g>
<path d="M110.324 112.934C109.38 113.524 108.395 114.048 107.378 114.502C106.395 115.023 105.377 115.476 104.332 115.858C105.273 115.263 106.257 114.737 107.274 114.286C108.256 113.761 109.276 113.309 110.324 112.934Z" fill="#E1A553"/>
<g opacity="0.2">
<path d="M110.324 112.934C109.38 113.524 108.395 114.048 107.378 114.502C106.395 115.023 105.377 115.476 104.332 115.858C105.273 115.263 106.257 114.737 107.274 114.286C108.256 113.761 109.276 113.309 110.324 112.934Z" fill="black"/>
</g>
<path d="M116.7 119.919C116.169 118.992 115.705 118.027 115.314 117.033C114.852 116.068 114.462 115.07 114.147 114.048C114.679 114.976 115.143 115.942 115.534 116.938C115.996 117.902 116.386 118.898 116.7 119.919Z" fill="#E1A553"/>
<g opacity="0.2">
<path d="M116.7 119.919C116.169 118.992 115.705 118.027 115.314 117.033C114.852 116.068 114.462 115.07 114.147 114.048C114.679 114.976 115.143 115.942 115.534 116.938C115.996 117.902 116.386 118.898 116.7 119.919Z" fill="black"/>
</g>
<path d="M107.482 110.16C107.179 110.382 106.818 110.509 106.443 110.526C106.069 110.542 105.697 110.447 105.377 110.253C105.056 110.059 104.8 109.774 104.641 109.434C104.483 109.094 104.428 108.715 104.485 108.344C104.542 107.973 104.707 107.628 104.96 107.351C105.213 107.074 105.543 106.879 105.907 106.789C106.271 106.7 106.654 106.72 107.006 106.848C107.359 106.976 107.666 107.206 107.888 107.508C108.035 107.708 108.142 107.936 108.201 108.178C108.261 108.42 108.272 108.672 108.234 108.918C108.197 109.164 108.111 109.401 107.982 109.614C107.852 109.827 107.683 110.013 107.482 110.16Z" fill="#263238"/>
<path d="M107.568 108.281C107.167 108.579 106.74 108.842 106.294 109.067L105.991 109.236L105.935 109.266L105.905 109.214C105.7 108.89 105.527 108.547 105.386 108.19C105.627 108.489 105.837 108.812 106.013 109.154L105.931 109.128L106.233 108.955C106.658 108.692 107.104 108.466 107.568 108.281Z" fill="white"/>
<path d="M111.172 102.095L104.806 100.004L103.505 103.965L109.871 106.055L111.172 102.095Z" fill="#E1A553"/>
<g opacity="0.2">
<path d="M111.172 102.095L104.806 100.004L103.505 103.965L109.871 106.055L111.172 102.095Z" fill="black"/>
</g>
<path d="M111.158 102.099C111.069 102.152 110.975 102.196 110.877 102.229L110.082 102.54C109.413 102.794 108.48 103.144 107.434 103.525H107.391L107.365 103.486L107.261 103.347C106.566 102.432 105.965 101.598 105.494 100.989L104.976 100.285C104.909 100.198 104.85 100.105 104.799 100.008C104.879 100.083 104.951 100.165 105.015 100.254L105.572 100.954C106.034 101.546 106.669 102.371 107.361 103.287L107.469 103.429H107.4C108.441 103.049 109.378 102.712 110.061 102.479L110.864 102.207C110.958 102.16 111.056 102.124 111.158 102.099Z" fill="#E1A553"/>
<g opacity="0.2">
<path d="M111.158 102.099C111.069 102.152 110.975 102.196 110.877 102.229L110.082 102.54C109.413 102.794 108.48 103.144 107.434 103.525H107.391L107.365 103.486L107.261 103.347C106.566 102.432 105.965 101.598 105.494 100.989L104.976 100.285C104.909 100.198 104.85 100.105 104.799 100.008C104.879 100.083 104.951 100.165 105.015 100.254L105.572 100.954C106.034 101.546 106.669 102.371 107.361 103.287L107.469 103.429H107.4C108.441 103.049 109.378 102.712 110.061 102.479L110.864 102.207C110.958 102.16 111.056 102.124 111.158 102.099Z" fill="#E1A553"/>
</g>
<path d="M106.635 102.436C106.14 102.744 105.625 103.018 105.093 103.257C104.577 103.53 104.043 103.769 103.494 103.97C103.987 103.657 104.503 103.381 105.036 103.145C105.552 102.87 106.086 102.633 106.635 102.436Z" fill="#E1A553"/>
<g opacity="0.2">
<path d="M106.635 102.436C106.14 102.744 105.625 103.018 105.093 103.257C104.577 103.53 104.043 103.769 103.494 103.97C103.987 103.657 104.503 103.381 105.036 103.145C105.552 102.87 106.086 102.633 106.635 102.436Z" fill="#E1A553"/>
</g>
<path d="M109.974 106.095C109.696 105.609 109.453 105.104 109.249 104.583C109.008 104.076 108.803 103.554 108.635 103.019C109.159 104.009 109.607 105.037 109.974 106.095Z" fill="#E1A553"/>
<g opacity="0.2">
<path d="M109.974 106.095C109.696 105.609 109.453 105.104 109.249 104.583C109.008 104.076 108.803 103.554 108.635 103.019C109.159 104.009 109.607 105.037 109.974 106.095Z" fill="#E1A553"/>
</g>
<path d="M60.048 52.5183C59.6087 54.2473 58.6666 55.8072 57.3408 57.0008C56.015 58.1943 54.365 58.968 52.5996 59.2239C50.8341 59.4798 49.0324 59.2064 47.4222 58.4384C45.8121 57.6704 44.4658 56.4422 43.5537 54.9091C42.6416 53.376 42.2045 51.6068 42.2978 49.8253C42.3911 48.0438 43.0105 46.33 44.0778 44.9006C45.1451 43.4711 46.6122 42.3902 48.2938 41.7945C49.9753 41.1989 51.7957 41.1152 53.5248 41.5541C55.8433 42.1438 57.8328 43.6299 59.056 45.6859C60.2792 47.7418 60.636 50.1993 60.048 52.5183Z" fill="#263238"/>
<path d="M54.6351 45.4076C54.7949 45.4724 53.7711 48.492 52.3455 52.1554C52.1338 52.6868 51.9135 53.1965 51.7363 53.6976L51.6283 53.9698L51.3562 53.8661C48.4315 52.7386 46.2931 51.8098 46.345 51.6759C46.3968 51.542 48.6173 52.2418 51.5635 53.3088L51.1834 53.4816C51.3735 52.9805 51.5722 52.4664 51.7752 51.9351C53.1965 48.2674 54.4795 45.36 54.6351 45.4076Z" fill="white"/>
<path d="M170.921 180.183C172.537 179.424 174.354 179.203 176.105 179.552C177.047 179.708 178.027 179.984 178.671 180.693C179.315 181.401 179.431 182.645 178.697 183.255C178.221 183.573 177.651 183.718 177.081 183.665C175.707 183.665 174.187 183.406 173.089 184.231C172.463 184.702 172.048 185.484 171.301 185.717C170.927 185.802 170.536 185.764 170.185 185.608C169.835 185.453 169.544 185.188 169.357 184.853C169.001 184.166 168.922 183.368 169.137 182.624C169.225 182.107 169.433 181.617 169.742 181.194C170.052 180.77 170.455 180.424 170.921 180.183Z" fill="#E1A553"/>
<g opacity="0.2">
<path d="M170.921 180.183C172.537 179.424 174.354 179.203 176.105 179.552C177.047 179.708 178.027 179.984 178.671 180.693C179.315 181.401 179.431 182.645 178.697 183.255C178.221 183.573 177.651 183.718 177.081 183.665C175.707 183.665 174.187 183.406 173.089 184.231C172.463 184.702 172.048 185.484 171.301 185.717C170.927 185.802 170.536 185.764 170.185 185.608C169.835 185.453 169.544 185.188 169.357 184.853C169.001 184.166 168.922 183.368 169.137 182.624C169.225 182.107 169.433 181.617 169.742 181.194C170.052 180.77 170.455 180.424 170.921 180.183Z" fill="white"/>
</g>
<path d="M167.305 173.202C168.273 174.58 170.148 174.122 171.016 173.28C171.884 172.437 172.256 171.219 172.588 170.057C173.353 167.4 174.122 164.614 173.556 161.909C173.416 161.09 173.056 160.324 172.515 159.693C172.239 159.383 171.887 159.151 171.494 159.02C171.1 158.889 170.679 158.863 170.273 158.946C169.327 159.196 168.739 160.125 168.316 161.006C167.065 163.609 166.408 166.457 166.393 169.344C166.393 170.688 166.549 172.096 167.305 173.206" fill="#E1A553"/>
<path d="M164.657 175.18C165.702 173.936 165.901 172.122 165.434 170.562C164.905 169.015 163.961 167.643 162.704 166.597C161.273 165.333 159.611 164.359 157.81 163.728C157.111 163.446 156.359 163.317 155.606 163.352C155.231 163.375 154.866 163.488 154.544 163.683C154.222 163.878 153.952 164.149 153.757 164.471C153.243 165.452 153.736 166.631 154.272 167.616C155.214 169.33 156.288 170.968 157.486 172.515C158.449 173.755 159.555 174.982 161.024 175.539C162.492 176.096 164.017 176.036 164.795 175.016" fill="#E1A553"/>
<g opacity="0.1">
<path d="M164.657 175.18C165.702 173.936 165.901 172.122 165.434 170.562C164.905 169.015 163.961 167.643 162.704 166.597C161.273 165.333 159.611 164.359 157.81 163.728C157.111 163.446 156.359 163.317 155.606 163.352C155.231 163.375 154.866 163.488 154.544 163.683C154.222 163.878 153.952 164.149 153.757 164.471C153.243 165.452 153.736 166.631 154.272 167.616C155.214 169.33 156.288 170.968 157.486 172.515C158.449 173.755 159.555 174.982 161.024 175.539C162.492 176.096 164.017 176.036 164.795 175.016" fill="black"/>
</g>
<path d="M167.24 193.994C167.29 193.789 167.319 193.579 167.327 193.368C167.374 192.91 167.426 192.339 167.495 191.64C167.58 190.798 167.708 189.962 167.88 189.134C168.103 188.125 168.408 187.135 168.791 186.175C169.166 185.215 169.675 184.313 170.303 183.496C170.813 182.831 171.465 182.287 172.213 181.907C172.719 181.657 173.261 181.488 173.82 181.405C174.029 181.398 174.238 181.369 174.442 181.319C174.232 181.293 174.02 181.293 173.811 181.319C173.23 181.363 172.661 181.509 172.13 181.751C171.345 182.124 170.657 182.672 170.117 183.354C169.463 184.182 168.934 185.102 168.549 186.084C168.161 187.064 167.859 188.076 167.646 189.108C167.484 189.946 167.373 190.793 167.314 191.644C167.257 192.37 167.236 192.94 167.227 193.372C167.21 193.579 167.215 193.788 167.24 193.994Z" fill="#263238"/>
<path d="M167.357 192.672C167.37 192.576 167.37 192.479 167.357 192.383V191.553C167.357 190.832 167.357 189.786 167.391 188.499C167.456 185.907 167.676 182.36 168.108 178.451C168.54 174.541 169.111 171.02 169.633 168.515C169.754 167.884 169.88 167.314 169.996 166.817C170.113 166.32 170.204 165.884 170.294 165.521C170.385 165.158 170.437 164.925 170.489 164.713C170.518 164.619 170.536 164.522 170.541 164.424C170.497 164.51 170.463 164.601 170.441 164.696L170.199 165.495C170.091 165.841 169.983 166.268 169.858 166.765C169.733 167.262 169.59 167.828 169.452 168.463C168.747 171.75 168.218 175.073 167.867 178.416C167.435 182.334 167.244 185.903 167.227 188.486C167.227 189.782 167.227 190.823 167.27 191.545C167.291 191.882 167.308 192.158 167.322 192.374C167.324 192.474 167.336 192.574 167.357 192.672Z" fill="#263238"/>
<path d="M167.374 185.795C167.397 185.507 167.397 185.218 167.374 184.931C167.326 184.143 167.236 183.359 167.106 182.58C166.677 180.008 165.94 177.496 164.912 175.098C163.919 172.675 162.493 170.453 160.704 168.54C160.395 168.213 160.064 167.905 159.715 167.62C159.564 167.491 159.43 167.365 159.283 167.262L158.903 166.998C158.67 166.823 158.424 166.666 158.168 166.527C159.01 167.191 159.811 167.905 160.566 168.666C162.295 170.594 163.683 172.803 164.67 175.198C165.237 176.504 165.717 177.846 166.108 179.215C166.484 180.472 166.735 181.63 166.925 182.606C167.115 183.583 167.206 184.382 167.27 184.935C167.284 185.224 167.319 185.511 167.374 185.795Z" fill="#263238"/>
<path d="M101.671 128.844H119.759L126.922 108.834H125.919L118.817 127.868L101.671 127.967V128.844Z" fill="#455A64"/>
<path d="M93.6792 131.371L94.3488 194.05H96.1891L95.4418 130.909L93.6792 131.371Z" fill="#263238"/>
<path d="M132.395 130.762C132.149 131.959 134.054 194.193 134.054 194.193H135.782L134.378 130.762H132.395Z" fill="#263238"/>
<path d="M153.541 128.844H76.6325V132.015H82.9786L78.8487 193.847L80.6544 193.946L84.7887 132.015H147.07L150.09 193.972H151.9L148.88 132.015H153.541V128.844Z" fill="#263238"/>
<path d="M110.16 191.691V186.939L101.256 186.849L101.157 193.804L101.71 193.843C104.164 194.007 114.204 194.491 115.849 194.011C117.681 193.476 110.16 191.691 110.16 191.691Z" fill="#E1A553"/>
<path d="M104.38 193.765C104.257 193.012 103.86 192.332 103.265 191.855C102.681 191.382 101.942 191.143 101.192 191.186L101.166 193.674L104.38 193.765Z" fill="#F5F5F5"/>
<path d="M113.823 192.693C113.823 192.693 116.467 193.488 116.13 193.92C115.793 194.352 105.633 194.244 101.153 193.804V193.605L113.007 193.834C113.007 193.834 113.305 192.711 113.823 192.693Z" fill="#F5F5F5"/>
<path d="M101.183 193.596L101.615 193.631L103.231 193.717C104.596 193.782 106.484 193.843 108.57 193.869C110.657 193.895 112.549 193.869 113.914 193.838L115.534 193.791L115.966 193.769H116.117C116.067 193.763 116.016 193.763 115.966 193.769H115.534H113.914C112.549 193.769 110.657 193.769 108.575 193.769C106.492 193.769 104.6 193.691 103.235 193.648L101.615 193.596H101.183Z" fill="#263238"/>
<path d="M113.02 193.968C113.093 193.7 113.198 193.442 113.331 193.199C113.492 192.973 113.679 192.767 113.888 192.585C113.621 192.701 113.395 192.895 113.241 193.142C113.086 193.389 113.011 193.677 113.024 193.968H113.02Z" fill="#263238"/>
<path d="M110.406 192.611C110.432 192.611 110.562 192.473 110.691 192.27C110.821 192.067 110.912 191.89 110.886 191.873C110.86 191.855 110.735 192.011 110.601 192.214C110.508 192.331 110.441 192.466 110.406 192.611Z" fill="#263238"/>
<path d="M109.689 192.24C109.711 192.261 109.853 192.171 110.009 192.032C110.164 191.894 110.272 191.769 110.251 191.747C110.229 191.726 110.091 191.816 109.935 191.95C109.78 192.084 109.672 192.201 109.689 192.24Z" fill="#263238"/>
<path d="M109.244 191.376C109.391 191.433 109.549 191.455 109.706 191.441C109.863 191.461 110.023 191.446 110.173 191.397C110.026 191.34 109.868 191.318 109.711 191.333C109.554 191.313 109.395 191.327 109.244 191.376Z" fill="#263238"/>
<path d="M109.093 190.784C109.253 190.871 109.429 190.924 109.611 190.939C109.792 190.955 109.975 190.933 110.147 190.875C109.795 190.847 109.444 190.817 109.093 190.784Z" fill="#263238"/>
<path d="M110.717 191.838C110.907 191.871 111.102 191.871 111.292 191.838C111.498 191.816 111.702 191.774 111.901 191.713C112.023 191.679 112.14 191.631 112.251 191.57C112.285 191.553 112.315 191.528 112.34 191.498C112.364 191.469 112.382 191.434 112.393 191.398C112.403 191.355 112.4 191.31 112.386 191.269C112.371 191.228 112.346 191.192 112.311 191.164C112.094 191.057 111.847 191.028 111.611 191.081C111.375 191.135 111.165 191.268 111.015 191.458C110.924 191.57 110.858 191.699 110.821 191.838C110.821 191.938 110.821 191.994 110.821 191.994C110.878 191.818 110.968 191.654 111.084 191.51C111.214 191.359 111.385 191.249 111.577 191.195C111.689 191.159 111.807 191.145 111.924 191.155C112.041 191.164 112.155 191.197 112.26 191.251C112.35 191.32 112.311 191.424 112.212 191.484C112.109 191.539 112 191.584 111.888 191.618C111.695 191.682 111.497 191.731 111.296 191.765C110.938 191.808 110.717 191.808 110.717 191.838Z" fill="#263238"/>
<path d="M110.864 191.868C110.936 191.749 110.962 191.608 110.938 191.471C110.922 191.317 110.87 191.169 110.786 191.039C110.739 190.953 110.67 190.88 110.587 190.828C110.504 190.776 110.409 190.746 110.311 190.741C110.253 190.752 110.201 190.786 110.168 190.836C110.135 190.885 110.123 190.946 110.134 191.004C110.146 191.095 110.177 191.182 110.225 191.259C110.301 191.385 110.391 191.502 110.493 191.609C110.579 191.713 110.69 191.794 110.817 191.842C110.817 191.842 110.704 191.739 110.549 191.557C110.459 191.451 110.381 191.335 110.316 191.212C110.238 191.091 110.186 190.87 110.316 190.849C110.445 190.827 110.605 190.978 110.691 191.095C110.768 191.207 110.821 191.333 110.847 191.466C110.868 191.599 110.874 191.734 110.864 191.868Z" fill="#263238"/>
<path d="M101.239 191.164C101.239 191.164 101.494 191.143 101.896 191.194C102.419 191.261 102.914 191.47 103.326 191.799C103.727 192.144 104.025 192.592 104.19 193.095C104.319 193.475 104.332 193.735 104.35 193.73C104.367 193.726 104.35 193.665 104.35 193.553C104.335 193.389 104.304 193.227 104.259 193.069C104.103 192.545 103.794 192.08 103.37 191.735C102.946 191.389 102.428 191.18 101.883 191.134C101.719 191.116 101.554 191.116 101.39 191.134C101.339 191.134 101.287 191.145 101.239 191.164Z" fill="#263238"/>
<path d="M102.203 187.488C102.099 188.703 102.07 189.924 102.116 191.143C102.185 190.536 102.216 189.926 102.211 189.315C102.243 188.706 102.24 188.096 102.203 187.488Z" fill="#263238"/>
<path d="M105.512 192.91C105.935 193.015 106.371 193.063 106.808 193.052C107.242 193.08 107.678 193.05 108.104 192.961C108.104 192.931 107.521 192.961 106.808 192.961C106.095 192.961 105.516 192.879 105.512 192.91Z" fill="#263238"/>
<path d="M103.766 192.888C103.766 192.909 103.814 193.013 103.87 193.147C103.926 193.281 103.961 193.398 103.991 193.398C104.021 193.398 104.039 193.255 103.969 193.104C103.9 192.953 103.788 192.866 103.766 192.888Z" fill="#263238"/>
<path d="M103.118 192.063C103.118 192.084 103.153 192.175 103.244 192.27C103.334 192.365 103.425 192.426 103.447 192.404C103.468 192.382 103.412 192.292 103.321 192.197C103.231 192.102 103.14 192.041 103.118 192.063Z" fill="#263238"/>
<path d="M102.181 191.678C102.181 191.709 102.306 191.709 102.436 191.756C102.565 191.804 102.661 191.877 102.682 191.855C102.704 191.834 102.635 191.713 102.47 191.657C102.306 191.601 102.172 191.652 102.181 191.678Z" fill="#263238"/>
<path d="M101.52 191.497C101.52 191.523 101.559 191.57 101.632 191.6C101.706 191.631 101.775 191.631 101.784 191.6C101.792 191.57 101.745 191.527 101.671 191.497C101.598 191.467 101.52 191.467 101.52 191.497Z" fill="#263238"/>
<path d="M127.665 186.896L125.712 182.554L117.56 186.136L120.329 192.512L120.848 192.322C123.155 191.458 132.512 187.773 133.808 186.658C135.272 185.414 127.665 186.896 127.665 186.896Z" fill="#E1A553"/>
<path d="M123.271 191.151C122.851 190.51 122.207 190.048 121.465 189.855C120.74 189.667 119.97 189.754 119.305 190.101L120.303 192.378L123.271 191.151Z" fill="#F5F5F5"/>
<path d="M131.436 186.291C131.436 186.291 134.171 185.924 134.028 186.46C133.885 186.995 124.593 191.073 120.329 192.508L120.265 192.322L131.16 187.652C131.16 187.652 130.969 186.52 131.436 186.291Z" fill="#F5F5F5"/>
<path d="M120.144 192.378L120.29 192.331L120.722 192.179L122.234 191.592C123.505 191.086 125.258 190.369 127.164 189.531C129.069 188.693 130.788 187.903 132.019 187.306L133.475 186.598L133.868 186.395C133.916 186.376 133.961 186.351 134.002 186.322L133.86 186.378L133.458 186.559L131.989 187.242C130.749 187.812 129.03 188.598 127.12 189.432C125.211 190.266 123.466 191 122.204 191.523L120.709 192.141L120.303 192.309L120.144 192.378Z" fill="#263238"/>
<path d="M131.229 187.786C131.183 187.512 131.172 187.233 131.194 186.957C131.251 186.685 131.336 186.42 131.449 186.166C131.237 186.37 131.108 186.646 131.086 186.939C131.028 187.229 131.079 187.531 131.229 187.786Z" fill="#263238"/>
<path d="M128.304 187.617C128.334 187.617 128.386 187.432 128.425 187.185C128.464 186.939 128.468 186.753 128.425 186.753C128.382 186.753 128.343 186.939 128.304 187.185C128.269 187.327 128.269 187.476 128.304 187.617Z" fill="#263238"/>
<path d="M127.475 187.561C127.5 187.561 127.591 187.427 127.678 187.242C127.764 187.056 127.807 186.892 127.781 186.879C127.755 186.866 127.665 187.008 127.578 187.198C127.492 187.389 127.44 187.548 127.475 187.561Z" fill="#263238"/>
<path d="M126.719 186.974C126.87 186.959 127.017 186.914 127.151 186.84C127.388 186.741 127.583 186.637 127.557 186.611C127.531 186.585 127.345 186.641 127.125 186.741C126.904 186.84 126.706 186.944 126.719 186.974Z" fill="#263238"/>
<path d="M126.338 186.494C126.52 186.524 126.707 186.498 126.874 186.421C127.051 186.377 127.211 186.281 127.332 186.144C127.161 186.188 126.995 186.247 126.835 186.321C126.665 186.363 126.498 186.421 126.338 186.494Z" fill="#263238"/>
<path d="M128.252 186.788C128.438 186.74 128.615 186.661 128.775 186.555C128.953 186.448 129.12 186.325 129.276 186.188C129.373 186.107 129.462 186.015 129.54 185.916C129.585 185.852 129.605 185.773 129.596 185.695C129.588 185.653 129.568 185.614 129.538 185.583C129.508 185.552 129.469 185.531 129.427 185.522C129.271 185.516 129.115 185.544 128.971 185.605C128.827 185.667 128.698 185.759 128.595 185.876C128.491 185.993 128.414 186.132 128.371 186.282C128.327 186.432 128.318 186.591 128.343 186.745C128.348 186.798 128.364 186.85 128.39 186.896C128.375 186.711 128.39 186.524 128.434 186.343C128.49 186.153 128.601 185.983 128.753 185.855C128.93 185.697 129.161 185.615 129.397 185.626C129.509 185.648 129.518 185.76 129.449 185.859C129.378 185.952 129.298 186.037 129.211 186.114C129.06 186.25 128.9 186.376 128.732 186.49C128.442 186.684 128.244 186.771 128.252 186.788Z" fill="#263238"/>
<path d="M128.399 186.754C128.413 186.616 128.377 186.479 128.3 186.365C128.222 186.234 128.116 186.124 127.989 186.041C127.91 185.983 127.818 185.946 127.722 185.933C127.625 185.92 127.527 185.932 127.436 185.967C127.387 186.001 127.354 186.053 127.344 186.111C127.333 186.17 127.346 186.23 127.38 186.278C127.427 186.357 127.492 186.424 127.57 186.473C127.69 186.559 127.821 186.63 127.958 186.684C128.081 186.743 128.216 186.769 128.352 186.762C128.352 186.762 128.205 186.715 127.989 186.611C127.861 186.553 127.741 186.48 127.63 186.395C127.509 186.317 127.375 186.14 127.496 186.058C127.569 186.037 127.645 186.032 127.72 186.044C127.795 186.056 127.866 186.084 127.928 186.127C128.047 186.196 128.149 186.291 128.226 186.404C128.294 186.515 128.351 186.632 128.399 186.754Z" fill="#263238"/>
<path d="M119.336 190.08C119.336 190.08 119.556 189.955 119.945 189.838C120.448 189.68 120.986 189.668 121.496 189.803C122.006 189.939 122.467 190.216 122.826 190.603C123.103 190.901 123.219 191.13 123.237 191.117C123.22 191.059 123.195 191.004 123.163 190.953C123.084 190.81 122.99 190.677 122.882 190.555C122.527 190.138 122.054 189.837 121.526 189.691C120.997 189.555 120.44 189.577 119.923 189.756C119.772 189.811 119.627 189.882 119.491 189.968C119.379 190.028 119.331 190.08 119.336 190.08Z" fill="#263238"/>
<path d="M118.692 186.309C118.875 186.898 119.096 187.475 119.353 188.037C119.577 188.605 119.832 189.16 120.118 189.7C119.93 189.118 119.708 188.549 119.452 187.993C119.23 187.418 118.977 186.856 118.692 186.309Z" fill="#263238"/>
<path d="M123.945 189.907C124.375 189.825 124.793 189.688 125.189 189.501C125.599 189.349 125.985 189.141 126.338 188.883C126.338 188.857 125.807 189.121 125.146 189.402C124.485 189.683 123.936 189.877 123.945 189.907Z" fill="#263238"/>
<path d="M122.347 190.602C122.347 190.633 122.442 190.698 122.55 190.797C122.658 190.896 122.736 190.991 122.761 190.974C122.787 190.957 122.761 190.827 122.623 190.715C122.485 190.603 122.355 190.577 122.347 190.602Z" fill="#263238"/>
<path d="M121.418 190.119C121.418 190.149 121.496 190.21 121.617 190.257C121.738 190.305 121.846 190.322 121.859 190.296C121.872 190.27 121.781 190.205 121.66 190.158C121.539 190.11 121.427 190.08 121.418 190.119Z" fill="#263238"/>
<path d="M120.407 190.153C120.407 190.179 120.532 190.132 120.671 190.123C120.809 190.114 120.921 190.123 120.934 190.123C120.947 190.123 120.83 190.011 120.662 190.028C120.493 190.045 120.385 190.132 120.407 190.153Z" fill="#263238"/>
<path d="M119.72 190.261C119.72 190.291 119.789 190.313 119.867 190.309C119.945 190.304 120.01 190.279 120.01 190.248C120.01 190.218 119.94 190.196 119.863 190.201C119.785 190.205 119.72 190.231 119.72 190.261Z" fill="#263238"/>
<path d="M46.8763 155.14L40.4482 107.106C40.4081 106.807 40.4353 106.503 40.5277 106.215C40.6202 105.928 40.7755 105.665 40.9825 105.446C41.1895 105.227 41.4429 105.056 41.7241 104.947C42.0054 104.838 42.3074 104.793 42.6082 104.816L58.104 106.112C58.7952 106.17 59.4434 106.472 59.9331 106.963C60.4228 107.454 60.7222 108.103 60.7781 108.795L64.5538 154.271L46.8763 155.14Z" fill="#E1A553"/>
<g opacity="0.2">
<path d="M46.8763 155.14L40.4482 107.106C40.4081 106.807 40.4353 106.503 40.5277 106.215C40.6202 105.928 40.7755 105.665 40.9825 105.446C41.1895 105.227 41.4429 105.056 41.7241 104.947C42.0054 104.838 42.3074 104.793 42.6082 104.816L58.104 106.112C58.7952 106.17 59.4434 106.472 59.9331 106.963C60.4228 107.454 60.7222 108.103 60.7781 108.795L64.5538 154.271L46.8763 155.14Z" fill="black"/>
</g>
<path d="M61.8235 84.5466C61.6939 82.7149 61.2144 80.9308 60.9595 79.1164C60.7047 77.302 60.6528 75.3925 61.3699 73.7034C61.8089 72.7617 62.4294 71.916 63.1959 71.2147C63.9625 70.5134 64.8599 69.9704 65.8368 69.6167C67.7989 68.9205 69.894 68.6811 71.9626 68.9168C72.3365 68.9282 72.7047 69.0118 73.0469 69.1631C73.2158 69.2413 73.3616 69.3621 73.4699 69.5135C73.5781 69.665 73.6453 69.8419 73.6647 70.0271C73.6688 70.119 73.654 70.2108 73.6212 70.2967C73.5883 70.3827 73.5381 70.4609 73.4736 70.5266C73.4092 70.5923 73.3319 70.644 73.2466 70.6784C73.1613 70.7129 73.0698 70.7294 72.9778 70.7269C73.7668 70.8075 74.5447 70.9741 75.2976 71.2237C75.6036 71.3104 75.8695 71.5014 76.0493 71.7637C76.1222 71.928 76.1511 72.1084 76.1329 72.2873C76.1147 72.4661 76.0501 72.637 75.9456 72.7832C75.7308 73.0727 75.466 73.3214 75.1637 73.5176C75.2562 73.4994 75.3513 73.4996 75.4437 73.5182C75.5361 73.5368 75.624 73.5734 75.7022 73.626C75.7805 73.6785 75.8476 73.746 75.8997 73.8245C75.9518 73.903 75.988 73.9911 76.0061 74.0836C76.0338 74.2724 76.0215 74.4649 75.9702 74.6487C75.9188 74.8325 75.8295 75.0035 75.708 75.1506C75.4877 75.4616 75.2026 75.7165 74.9736 76.0146C74.0405 77.2544 74.2219 78.9781 74.4466 80.516" fill="#263238"/>
<path d="M61.992 95.2774L70.7227 95.1219C70.8394 94.111 71.0079 90.1798 71.0079 90.1798C71.0079 90.1798 74.6583 89.8428 74.9261 86.2313C75.1939 82.6198 75.0816 74.2822 75.0816 74.2822C73.0817 73.2726 70.8486 72.8152 68.6128 72.9572C66.377 73.0992 64.2196 73.8355 62.3635 75.09L61.8019 75.4702L61.992 95.2774Z" fill="#B78876"/>
<path d="M73.872 80.5462C73.7986 80.4723 73.7487 80.3784 73.7285 80.2763C73.7084 80.1741 73.719 80.0683 73.759 79.9722C73.799 79.876 73.8665 79.7939 73.9532 79.7361C74.0398 79.6783 74.1416 79.6475 74.2457 79.6475C74.3498 79.6475 74.4516 79.6783 74.5382 79.7361C74.6248 79.7939 74.6923 79.876 74.7323 79.9722C74.7723 80.0683 74.7829 80.1741 74.7628 80.2763C74.7427 80.3784 74.6928 80.4723 74.6193 80.5462C74.5707 80.5959 74.5125 80.6355 74.4484 80.6625C74.3842 80.6895 74.3153 80.7034 74.2457 80.7034C74.1761 80.7034 74.1071 80.6895 74.043 80.6625C73.9788 80.6355 73.9207 80.5959 73.872 80.5462Z" fill="#263238"/>
<path d="M74.7922 79.6692C74.7317 79.7297 74.3947 79.4359 73.8979 79.4014C73.4011 79.3668 73.0339 79.6044 72.9691 79.5353C72.9043 79.4662 73.008 79.3971 73.1722 79.2847C73.3953 79.1471 73.6561 79.0834 73.9176 79.1028C74.179 79.1222 74.4277 79.2237 74.628 79.3927C74.7749 79.5267 74.8224 79.6433 74.7922 79.6692Z" fill="#263238"/>
<path d="M69.0293 79.7513C69.115 79.8111 69.181 79.8951 69.2189 79.9925C69.2567 80.0899 69.2648 80.1964 69.242 80.2984C69.2193 80.4004 69.1667 80.4933 69.091 80.5653C69.0152 80.6374 68.9198 80.6853 68.8168 80.703C68.7138 80.7206 68.6079 80.7073 68.5125 80.6646C68.417 80.6219 68.3365 80.5519 68.281 80.4633C68.2255 80.3747 68.1976 80.2716 68.2009 80.1672C68.2041 80.0627 68.2383 79.9616 68.2992 79.8766C68.3388 79.8203 68.3892 79.7724 68.4474 79.7356C68.5055 79.6989 68.5704 79.674 68.6382 79.6623C68.7061 79.6507 68.7755 79.6525 68.8426 79.6678C68.9097 79.6831 68.9732 79.7115 69.0293 79.7513Z" fill="#263238"/>
<path d="M69.3576 79.7773C69.2971 79.8334 68.9602 79.5397 68.4634 79.5051C67.9666 79.4705 67.5994 79.7081 67.5389 79.6433C67.4784 79.5785 67.5735 79.5008 67.7419 79.3928C67.9635 79.2528 68.2242 79.1878 68.4855 79.2072C68.7469 79.2267 68.995 79.3296 69.1935 79.5008C69.3403 79.6304 69.3879 79.7513 69.3576 79.7773Z" fill="#263238"/>
<path d="M71.1029 84.0066C71.3647 83.9201 71.6394 83.8792 71.915 83.8857C72.049 83.8857 72.1526 83.8554 72.1656 83.7863C72.1767 83.6557 72.1528 83.5245 72.0965 83.4061C71.9885 83.0692 71.8762 82.7279 71.7638 82.3693C71.3102 80.8962 70.9992 79.6823 71.077 79.6607C71.1547 79.6391 71.5781 80.8141 72.036 82.2873C72.144 82.6458 72.2434 82.9914 72.347 83.3284C72.418 83.5026 72.4301 83.6953 72.3816 83.877C72.3599 83.9257 72.3272 83.9687 72.2859 84.0024C72.2446 84.0362 72.196 84.0598 72.144 84.0714C72.0708 84.0793 71.9969 84.0793 71.9237 84.0714C71.6484 84.0965 71.3708 84.0745 71.1029 84.0066Z" fill="#263238"/>
<path d="M69.4483 84.4559C68.9515 84.1146 70.8307 85.3199 71.8459 85.3199C71.6601 85.5689 71.395 85.7474 71.0944 85.8259C70.7937 85.9044 70.4752 85.8783 70.1914 85.7519C69.12 85.2983 69.4483 84.4559 69.4483 84.4559Z" fill="white"/>
<path d="M71.0208 90.1282C69.3494 90.0584 67.7369 89.4913 66.3898 88.4995C66.3898 88.4995 67.3445 91.1693 70.969 91.0656L71.0208 90.1282Z" fill="#A36957"/>
<path d="M61.6853 78.1919L61.871 82.8791C61.871 82.8791 63.517 82.378 63.625 82.3305C63.733 82.283 63.5947 76.5892 63.5947 76.5892C63.5947 76.5892 63.3658 74.4292 64.7654 73.9324C66.2386 73.4011 66.8779 74.4681 68.9645 74.7964C75.8462 75.9585 75.3754 73.846 75.3754 73.846C75.3754 73.846 76.2394 72.9172 74.4725 71.8977C72.7056 70.8782 68.2862 70.5326 65.867 71.3663C61.115 73.0036 60.8299 74.6323 60.8299 76.0708C60.8299 78.1228 61.6853 78.1919 61.6853 78.1919Z" fill="#263238"/>
<path d="M62.4931 78.6757C62.4154 78.6454 59.8147 78.3085 60.061 81.38C60.3072 84.4515 63.3269 83.1901 63.3269 83.108C63.3269 83.0259 62.4931 78.6757 62.4931 78.6757Z" fill="#B78876"/>
<path d="M62.2987 82.08C62.2987 82.08 62.2469 82.1232 62.1605 82.1707C62.0366 82.2351 61.8926 82.2491 61.7587 82.2096C61.5492 82.1021 61.3729 81.9395 61.2489 81.7393C61.1248 81.5391 61.0576 81.3089 61.0546 81.0734C61.0247 80.8096 61.0542 80.5424 61.141 80.2915C61.164 80.1951 61.2097 80.1056 61.2744 80.0305C61.339 79.9553 61.4206 79.8967 61.5125 79.8595C61.5728 79.8387 61.6384 79.8394 61.6982 79.8614C61.7581 79.8835 61.8084 79.9255 61.8408 79.9805C61.8883 80.0626 61.871 80.1274 61.8883 80.1317C61.9056 80.136 61.9488 80.0712 61.9143 79.9502C61.893 79.8744 61.8455 79.8086 61.7803 79.7645C61.6893 79.7108 61.5817 79.6923 61.4779 79.7126C61.3537 79.747 61.2403 79.8127 61.1488 79.9035C61.0572 79.9942 60.9906 80.107 60.9552 80.231C60.8463 80.5052 60.8063 80.8018 60.8386 81.095C60.9077 81.7128 61.2706 82.2657 61.7026 82.3608C61.7871 82.378 61.8745 82.376 61.9582 82.3551C62.0419 82.3342 62.1199 82.2948 62.1864 82.2398C62.2987 82.175 62.3074 82.1016 62.2987 82.08Z" fill="#A36957"/>
<path d="M96.8026 120.096C96.8026 120.096 101.123 119.889 101.987 120.282C103.481 120.934 107.931 127.911 107.706 127.911C107.032 127.911 105.646 127.911 105.646 127.911L98.7336 125.289L97.1049 125.699L96.8026 120.096Z" fill="#B78876"/>
<path d="M115.379 140.128C115.379 140.128 128.304 184.896 128.334 184.676C128.364 184.455 116.748 190.261 116.748 190.261L108.911 157.887L115.379 140.128Z" fill="#263238"/>
<path d="M116.493 190.533L128.736 184.559L128.205 182.922L115.867 188.905L116.493 190.533Z" fill="#455A64"/>
<path d="M114.886 174.066C114.821 174.066 114.687 173.802 114.579 173.444C114.471 173.085 114.437 172.77 114.502 172.752C114.566 172.735 114.7 173.012 114.808 173.375C114.916 173.737 114.947 174.044 114.886 174.066Z" fill="#455A64"/>
<path d="M115.685 176.688C115.621 176.688 115.478 176.429 115.37 176.07C115.262 175.711 115.219 175.4 115.279 175.379C115.34 175.357 115.482 175.638 115.595 175.997C115.707 176.355 115.746 176.658 115.685 176.688Z" fill="#455A64"/>
<path d="M116.519 179.28C116.454 179.301 116.312 179.025 116.195 178.666C116.078 178.308 116.035 178.001 116.096 177.979C116.156 177.958 116.303 178.234 116.42 178.593C116.536 178.951 116.58 179.28 116.519 179.28Z" fill="#455A64"/>
<path d="M117.392 181.872C117.327 181.894 117.18 181.621 117.059 181.263C116.938 180.904 116.886 180.598 116.951 180.576C117.016 180.554 117.163 180.826 117.284 181.185C117.405 181.544 117.452 181.872 117.392 181.872Z" fill="#455A64"/>
<path d="M118.299 184.464C118.238 184.464 118.083 184.213 117.958 183.859C117.832 183.505 117.776 183.198 117.841 183.177C117.906 183.155 118.053 183.423 118.182 183.781C118.312 184.14 118.368 184.429 118.299 184.464Z" fill="#455A64"/>
<path d="M119.232 187.017C119.167 187.017 119.012 186.771 118.882 186.416C118.753 186.062 118.692 185.755 118.753 185.734C118.813 185.712 118.973 185.98 119.102 186.334C119.232 186.689 119.305 186.995 119.232 187.017Z" fill="#455A64"/>
<path d="M118.554 188.093C118.447 187.949 118.36 187.792 118.295 187.626C118.143 187.315 117.936 186.862 117.698 186.296C117.219 185.164 116.627 183.57 116.031 181.794C115.435 180.019 114.934 178.394 114.579 177.219C114.415 176.666 114.277 176.2 114.147 175.824C114.085 175.656 114.044 175.48 114.026 175.301C114.111 175.458 114.18 175.623 114.234 175.794C114.355 176.118 114.519 176.584 114.718 177.167L116.234 181.716C116.826 183.492 117.392 185.09 117.832 186.235L118.359 187.587C118.442 187.748 118.507 187.918 118.554 188.093Z" fill="#455A64"/>
<path d="M55.0757 137.017C55.1837 134.646 53.8359 150.033 65.664 150.439C77.4922 150.846 101.658 150.668 101.658 150.668L98.8287 189.691H113.02L115.983 148.176C115.983 148.176 117.495 136.149 109.266 134.615C104.116 133.652 72.0922 133.345 72.0922 133.345L55.0757 137.017Z" fill="#263238"/>
<path d="M98.5046 189.773H113.448V187.449L98.5046 187.471V189.773Z" fill="#455A64"/>
<path d="M75.1292 148.608C75.1793 148.601 75.2301 148.601 75.2803 148.608L75.7123 148.582L77.4403 148.504L83.8555 148.258L105.494 147.515H105.633V147.653C105.438 149.243 105.274 150.923 105.136 152.63C104.946 155.071 104.764 157.451 104.587 159.749C104.41 162.047 104.155 164.259 103.935 166.367C103.503 170.575 103.097 174.368 102.76 177.56C102.423 180.753 102.142 183.31 101.948 185.103C101.848 185.967 101.771 186.676 101.714 187.155C101.689 187.38 101.667 187.557 101.65 187.687C101.644 187.748 101.634 187.808 101.619 187.868C101.613 187.808 101.613 187.747 101.619 187.687C101.619 187.553 101.645 187.376 101.663 187.151C101.706 186.667 101.771 185.976 101.853 185.095C102.025 183.302 102.285 180.723 102.591 177.543C102.898 174.364 103.291 170.558 103.715 166.341C103.922 164.233 104.147 162.021 104.35 159.728C104.553 157.434 104.708 155.049 104.894 152.612C105.032 150.884 105.196 149.221 105.395 147.623L105.516 147.757L83.8728 148.418L77.4576 148.595L75.7296 148.629H75.2976C75.2407 148.631 75.1839 148.624 75.1292 148.608Z" fill="#455A64"/>
<path d="M76.4943 146.919C76.4943 146.983 76.1919 147.044 75.8117 147.053C75.4316 147.061 75.1292 147.018 75.1292 146.953C75.1292 146.888 75.4315 146.824 75.8074 146.815C76.1832 146.806 76.4943 146.854 76.4943 146.919Z" fill="#455A64"/>
<path d="M79.2288 146.854C79.2288 146.919 78.9264 146.979 78.5462 146.988C78.1661 146.997 77.8637 146.953 77.8594 146.889C77.855 146.824 78.1661 146.763 78.5419 146.75C78.9178 146.737 79.2288 146.789 79.2288 146.854Z" fill="#455A64"/>
<path d="M81.9634 146.789C81.9634 146.858 81.661 146.914 81.2808 146.927C80.9006 146.94 80.5982 146.889 80.5939 146.824C80.5896 146.759 80.9006 146.698 81.2765 146.69C81.6523 146.681 81.9634 146.724 81.9634 146.789Z" fill="#455A64"/>
<path d="M84.6979 146.724C84.6979 146.794 84.3955 146.854 84.0154 146.863C83.6352 146.871 83.3328 146.824 83.3285 146.759C83.3242 146.694 83.6352 146.634 84.011 146.625C84.3869 146.616 84.6979 146.66 84.6979 146.724Z" fill="#455A64"/>
<path d="M87.4325 146.664C87.4325 146.729 87.1301 146.789 86.7499 146.798C86.3698 146.806 86.0674 146.759 86.063 146.694C86.0587 146.629 86.3698 146.569 86.7456 146.56C87.1214 146.552 87.4325 146.595 87.4325 146.664Z" fill="#455A64"/>
<path d="M90.167 146.599C90.167 146.664 89.8646 146.724 89.4845 146.733C89.1043 146.742 88.8019 146.694 88.7976 146.629C88.7933 146.565 89.1043 146.504 89.4802 146.495C89.856 146.487 90.1627 146.534 90.167 146.599Z" fill="#455A64"/>
<path d="M92.9016 146.534C92.9016 146.599 92.5992 146.66 92.219 146.668C91.8389 146.677 91.5365 146.629 91.5321 146.565C91.5278 146.5 91.8346 146.439 92.2147 146.431C92.5949 146.422 92.88 146.47 92.9016 146.534Z" fill="#455A64"/>
<path d="M95.6361 146.469C95.6361 146.534 95.3337 146.595 94.9536 146.603C94.5734 146.612 94.271 146.569 94.2667 146.5C94.2624 146.431 94.5691 146.374 94.9493 146.366C95.3294 146.357 95.6318 146.405 95.6361 146.469Z" fill="#455A64"/>
<path d="M98.3707 146.405C98.3707 146.47 98.0683 146.53 97.6882 146.539C97.308 146.547 97.0056 146.504 97.0013 146.439C96.9969 146.375 97.3037 146.31 97.6838 146.301C98.064 146.292 98.3664 146.34 98.3707 146.405Z" fill="#455A64"/>
<path d="M101.088 146.34C101.088 146.405 100.781 146.465 100.405 146.474C100.03 146.482 99.7229 146.439 99.7186 146.374C99.7142 146.31 100.021 146.245 100.401 146.236C100.781 146.227 101.088 146.275 101.088 146.34Z" fill="#455A64"/>
<path d="M103.84 146.275C103.84 146.34 103.533 146.4 103.157 146.409C102.781 146.418 102.475 146.374 102.47 146.31C102.466 146.245 102.773 146.184 103.153 146.176C103.533 146.167 103.836 146.21 103.84 146.275Z" fill="#455A64"/>
<path d="M106.574 146.21C106.574 146.279 106.268 146.34 105.892 146.349C105.516 146.357 105.205 146.31 105.205 146.245C105.205 146.18 105.507 146.12 105.888 146.111C106.268 146.102 106.57 146.146 106.574 146.21Z" fill="#455A64"/>
<path d="M106.57 148.69C106.501 148.69 106.479 148.375 106.518 147.999C106.557 147.623 106.635 147.325 106.7 147.329C106.764 147.333 106.79 147.645 106.752 148.02C106.713 148.396 106.635 148.699 106.57 148.69Z" fill="#455A64"/>
<path d="M106.302 151.412C106.237 151.412 106.212 151.096 106.25 150.72C106.289 150.345 106.371 150.047 106.436 150.051C106.501 150.055 106.523 150.366 106.488 150.742C106.453 151.118 106.367 151.42 106.302 151.412Z" fill="#455A64"/>
<path d="M106.034 154.133C105.97 154.133 105.944 153.818 105.983 153.442C106.021 153.066 106.104 152.768 106.168 152.772C106.233 152.777 106.255 153.092 106.22 153.468C106.186 153.844 106.099 154.142 106.034 154.133Z" fill="#455A64"/>
<path d="M105.767 156.855C105.702 156.855 105.68 156.539 105.715 156.164C105.749 155.788 105.836 155.49 105.9 155.494C105.965 155.498 105.987 155.814 105.952 156.189C105.918 156.565 105.84 156.863 105.767 156.855Z" fill="#455A64"/>
<path d="M105.499 159.581C105.434 159.581 105.412 159.261 105.447 158.885C105.481 158.509 105.568 158.211 105.633 158.22C105.697 158.229 105.723 158.535 105.684 158.911C105.646 159.287 105.564 159.585 105.499 159.581Z" fill="#455A64"/>
<path d="M105.231 162.302C105.166 162.302 105.144 161.983 105.183 161.607C105.222 161.231 105.3 160.933 105.365 160.942C105.43 160.95 105.456 161.257 105.417 161.633C105.378 162.009 105.3 162.307 105.231 162.302Z" fill="#455A64"/>
<path d="M104.976 165.024C104.907 165.024 104.885 164.708 104.924 164.333C104.963 163.957 105.041 163.654 105.11 163.663C105.179 163.672 105.196 163.978 105.157 164.354C105.119 164.73 105.032 165.024 104.976 165.024Z" fill="#455A64"/>
<path d="M104.7 167.745C104.635 167.745 104.609 167.43 104.648 167.054C104.687 166.678 104.769 166.376 104.833 166.385C104.898 166.393 104.92 166.7 104.885 167.076C104.851 167.452 104.764 167.75 104.7 167.745Z" fill="#455A64"/>
<path d="M104.432 170.467C104.367 170.467 104.345 170.152 104.38 169.776C104.414 169.4 104.501 169.102 104.566 169.106C104.63 169.111 104.652 169.422 104.617 169.797C104.583 170.173 104.497 170.476 104.432 170.467Z" fill="#455A64"/>
<path d="M104.164 173.189C104.099 173.189 104.077 172.873 104.112 172.498C104.147 172.122 104.233 171.824 104.298 171.828C104.363 171.832 104.384 172.143 104.35 172.519C104.315 172.895 104.229 173.197 104.164 173.189Z" fill="#455A64"/>
<path d="M103.896 175.91C103.831 175.91 103.81 175.595 103.844 175.219C103.879 174.843 103.965 174.545 104.03 174.549C104.095 174.554 104.121 174.865 104.082 175.241C104.043 175.616 103.961 175.919 103.896 175.91Z" fill="#455A64"/>
<path d="M103.633 178.632C103.563 178.632 103.542 178.316 103.581 177.941C103.62 177.565 103.697 177.267 103.762 177.271C103.827 177.275 103.853 177.591 103.814 177.967C103.775 178.342 103.68 178.64 103.633 178.632Z" fill="#455A64"/>
<path d="M103.365 181.354C103.3 181.354 103.274 181.038 103.313 180.662C103.352 180.286 103.429 179.988 103.499 179.993C103.568 179.997 103.585 180.312 103.546 180.688C103.507 181.064 103.429 181.362 103.365 181.354Z" fill="#455A64"/>
<path d="M103.097 184.079C103.032 184.079 103.006 183.76 103.045 183.384C103.084 183.008 103.166 182.71 103.231 182.719C103.296 182.727 103.317 183.034 103.283 183.41C103.248 183.786 103.162 184.084 103.097 184.079Z" fill="#455A64"/>
<path d="M102.816 186.801C102.751 186.801 102.73 186.486 102.764 186.11C102.799 185.734 102.885 185.431 102.95 185.44C103.015 185.449 103.036 185.755 103.002 186.131C102.967 186.507 102.894 186.805 102.816 186.801Z" fill="#455A64"/>
<path d="M102.686 188.244C102.622 188.244 102.57 188.214 102.574 188.192C102.578 188.17 102.63 188.153 102.695 188.162C102.76 188.17 102.812 188.192 102.812 188.214C102.812 188.235 102.751 188.248 102.686 188.244Z" fill="#455A64"/>
<path d="M103.594 148.85C103.345 149.24 103.031 149.583 102.665 149.865C102.35 150.203 101.98 150.487 101.572 150.703C102.135 149.974 102.819 149.347 103.594 148.85Z" fill="#263238"/>
<path d="M104.574 149.377C104.105 149.716 103.592 149.991 103.049 150.193C102.538 150.465 101.991 150.666 101.425 150.79C101.895 150.451 102.407 150.176 102.95 149.973C103.462 149.702 104.008 149.501 104.574 149.377Z" fill="#263238"/>
<path d="M75.7166 118.411C75.7166 118.411 74.2694 102.907 71.699 96.12L72.2088 95.7355L71.4442 93.0614L61.8278 91.895L61.9747 93.9816C60.5556 94.6208 59.3963 95.7238 58.6872 97.1093C55.2312 104.427 56.9592 112.972 55.1059 128.805C55.1059 128.805 52.9459 136.231 55.175 138.555L76.1573 133.665L75.168 128.879C84.3264 128.706 99.3859 127.021 99.3859 127.021L98.9539 118.355C98.9539 118.355 76.451 118.489 75.7166 118.411Z" fill="#455A64"/>
<path d="M71.4269 93.0483C71.7319 93.5921 71.9657 94.1729 72.1224 94.7763C72.2163 95.0122 72.2802 95.2589 72.3125 95.5107C72.3188 95.6412 72.2756 95.7693 72.1915 95.8693C72.1222 95.9511 72.0329 96.0136 71.9323 96.0507C71.5694 96.1631 71.3621 96.0853 71.3621 96.0507C71.3621 96.0162 71.5867 96.0119 71.8589 95.8823C71.9318 95.8497 71.9933 95.7961 72.0356 95.7284C72.078 95.6607 72.0991 95.5819 72.0965 95.5021C72.0474 95.2742 71.981 95.0503 71.8978 94.8325C71.667 94.2597 71.5088 93.6604 71.4269 93.0483Z" fill="#E0E0E0"/>
<path d="M73.7208 104.591C73.7208 104.661 69.8328 104.712 65.0808 104.712C60.3288 104.712 56.4408 104.661 56.4408 104.591C56.4408 104.522 60.3288 104.475 65.0808 104.475C69.8328 104.475 73.7208 104.544 73.7208 104.591Z" fill="#263238"/>
<path d="M72.8179 100.224C72.8179 100.289 69.3878 100.345 65.1629 100.345C60.9379 100.345 57.5078 100.289 57.5078 100.224C57.5078 100.159 60.9336 100.107 65.1629 100.107C69.3922 100.107 72.8179 100.159 72.8179 100.224Z" fill="#263238"/>
<path d="M71.5565 96.3834C71.5565 96.4482 68.7226 96.5001 65.2234 96.5001C61.7242 96.5001 58.8946 96.4482 58.8946 96.3834C58.8946 96.3186 61.7285 96.2625 65.2234 96.2625C68.7182 96.2625 71.5565 96.3359 71.5565 96.3834Z" fill="#263238"/>
<path d="M71.4312 93.6704C69.8172 93.7925 68.198 93.8329 66.5798 93.7913C64.9617 93.8329 63.3425 93.7925 61.7285 93.6704C61.7285 93.6056 63.8885 93.5537 66.5798 93.5537C69.2712 93.5537 71.4312 93.6056 71.4312 93.6704Z" fill="#263238"/>
<path d="M74.3299 108.795C74.3299 108.86 70.2389 108.911 65.1931 108.911C60.1474 108.911 56.0563 108.86 56.0563 108.795C56.0563 108.73 60.1474 108.674 65.1931 108.674C70.2389 108.674 74.3299 108.726 74.3299 108.795Z" fill="#263238"/>
<path d="M75.073 113.015C75.073 113.08 70.8178 113.132 65.569 113.132C60.3202 113.132 56.065 113.08 56.065 113.015C56.065 112.951 60.3202 112.895 65.569 112.895C70.8178 112.895 75.073 112.951 75.073 113.015Z" fill="#263238"/>
<path d="M75.5395 116.904C75.5395 116.973 71.1763 117.024 65.7979 117.024C60.4195 117.024 56.0563 116.973 56.0563 116.904C56.0563 116.834 60.4195 116.787 65.7979 116.787C71.1763 116.787 75.5395 116.839 75.5395 116.904Z" fill="#263238"/>
<path d="M96.8026 121.159C96.8026 121.223 87.601 121.275 76.2523 121.275C64.9037 121.275 55.6978 121.223 55.6978 121.159C55.6978 121.094 64.8994 121.038 76.2523 121.038C87.6053 121.038 96.8026 121.094 96.8026 121.159Z" fill="#263238"/>
<path d="M96.9624 124.563C96.9624 124.632 87.6917 124.684 76.2567 124.684C64.8216 124.684 55.5466 124.632 55.5466 124.563C55.5466 124.494 64.8173 124.446 76.2567 124.446C87.696 124.446 96.9624 124.498 96.9624 124.563Z" fill="#263238"/>
<path d="M74.8397 128.762C74.8397 128.831 70.4117 128.883 64.9469 128.883C59.4821 128.883 55.0498 128.831 55.0498 128.762C55.0498 128.693 59.4778 128.645 64.9469 128.645C70.416 128.645 74.8397 128.697 74.8397 128.762Z" fill="#263238"/>
<path d="M75.8462 132.658C75.8462 132.723 71.0294 132.779 65.0894 132.779C59.1494 132.779 54.3326 132.723 54.3326 132.658C54.3326 132.594 59.1494 132.542 65.0894 132.542C71.0294 132.542 75.8462 132.594 75.8462 132.658Z" fill="#263238"/>
<path d="M57.5294 133.691C57.4603 133.691 57.4085 126.135 57.4085 116.817C57.4085 107.499 57.4603 99.9431 57.5294 99.9431C57.5986 99.9431 57.6461 107.499 57.6461 116.817C57.6461 126.135 57.5942 133.691 57.5294 133.691Z" fill="#263238"/>
<path d="M62.7178 133.276C62.653 133.276 62.6011 124.04 62.6011 112.648C62.6011 101.256 62.64 92.0159 62.7178 92.0159C62.7955 92.0159 62.8387 101.248 62.8387 112.644C62.8387 124.04 62.7869 133.276 62.7178 133.276Z" fill="#263238"/>
<path d="M68.4504 132.659C68.3856 132.659 68.3338 123.755 68.3338 112.787C68.3338 101.818 68.3856 92.9146 68.4504 92.9146C68.5152 92.9146 68.5714 101.818 68.5714 112.787C68.5714 123.755 68.5195 132.659 68.4504 132.659Z" fill="#263238"/>
<path d="M73.2672 133.678C73.2024 133.678 73.1506 126.688 73.1506 118.07C73.1506 109.451 73.2024 102.457 73.2672 102.457C73.332 102.457 73.3882 109.447 73.3882 118.07C73.3882 126.692 73.332 133.678 73.2672 133.678Z" fill="#263238"/>
<path d="M78.3691 118.389C78.4253 118.894 78.4412 119.403 78.4167 119.91C78.4167 120.847 78.4167 122.139 78.3648 123.565C78.313 124.99 78.2871 126.286 78.2439 127.219C78.2399 127.727 78.1995 128.234 78.1229 128.736C78.0665 128.232 78.0506 127.725 78.0754 127.219C78.0754 126.282 78.0754 124.99 78.1272 123.56C78.1791 122.131 78.205 120.839 78.2482 119.901C78.2468 119.395 78.2873 118.889 78.3691 118.389Z" fill="#263238"/>
<path d="M83.808 118.571C83.8615 119.044 83.8774 119.521 83.8555 119.996C83.8555 120.86 83.8555 122.083 83.8123 123.418C83.7691 124.753 83.7346 125.967 83.6957 126.844C83.6972 127.319 83.6567 127.793 83.5747 128.261C83.521 127.79 83.5051 127.316 83.5272 126.844C83.5272 125.98 83.5272 124.753 83.5747 123.414C83.6223 122.074 83.6482 120.865 83.6914 119.988C83.6874 119.513 83.7264 119.039 83.808 118.571Z" fill="#263238"/>
<path d="M89.2167 118.476C89.2757 118.933 89.2931 119.394 89.2685 119.854C89.2685 120.718 89.2685 121.88 89.2253 123.176C89.1821 124.472 89.1519 125.647 89.1087 126.494C89.113 126.956 89.0739 127.417 88.992 127.872C88.9379 127.416 88.9206 126.957 88.9402 126.498C88.9402 125.634 88.9402 124.472 88.9877 123.176C89.0352 121.88 89.0612 120.701 89.1 119.854C89.1012 119.392 89.1402 118.931 89.2167 118.476Z" fill="#263238"/>
<path d="M94.6469 118.325C94.7064 118.767 94.7238 119.214 94.6987 119.66C94.6987 120.485 94.6987 121.625 94.6555 122.882C94.6123 124.139 94.5864 125.28 94.5432 126.101C94.5443 126.548 94.5067 126.995 94.4309 127.436C94.371 126.993 94.3522 126.546 94.3747 126.101C94.3747 125.276 94.3747 124.135 94.4179 122.878C94.4611 121.621 94.4914 120.476 94.5303 119.655C94.5286 119.209 94.5677 118.764 94.6469 118.325Z" fill="#263238"/>
<path d="M73.8331 120.342C74.2241 119.382 74.9354 118.587 75.8463 118.091C75.5292 118.483 75.1872 118.854 74.8224 119.202C74.5167 119.602 74.1863 119.983 73.8331 120.342Z" fill="#263238"/>
<path d="M75.073 120.446C74.9826 120.012 75.0156 119.561 75.1683 119.145C75.321 118.729 75.5873 118.364 75.937 118.091C75.9888 118.139 75.6259 118.579 75.3927 119.227C75.1594 119.875 75.168 120.446 75.073 120.446Z" fill="#263238"/>
<path d="M97.2 126.973C96.9579 125.603 96.7935 124.22 96.7075 122.83C96.5433 121.447 96.4568 120.055 96.4483 118.662C96.6959 120.033 96.8618 121.418 96.9451 122.809C97.1093 124.191 97.1944 125.581 97.2 126.973Z" fill="#263238"/>
<path d="M97.4722 120.295C97.4722 120.325 97.3512 120.411 97.3339 120.627C97.3301 120.684 97.3377 120.742 97.3563 120.796C97.3748 120.85 97.4039 120.9 97.4419 120.943C97.4906 120.986 97.5512 121.014 97.616 121.023C97.6808 121.031 97.7466 121.02 97.8048 120.99C97.8658 120.967 97.9187 120.926 97.9571 120.873C97.9954 120.82 98.0176 120.757 98.0208 120.692C98.015 120.635 97.9979 120.58 97.9705 120.529C97.943 120.479 97.9058 120.434 97.8609 120.398C97.6925 120.264 97.5326 120.308 97.524 120.273C97.5153 120.238 97.6838 120.117 97.956 120.273C98.0356 120.316 98.1034 120.378 98.1532 120.453C98.203 120.528 98.2332 120.615 98.2411 120.705C98.2472 120.817 98.218 120.928 98.1576 121.023C98.0971 121.117 98.0085 121.191 97.9042 121.232C97.8017 121.28 97.6866 121.296 97.5751 121.275C97.4636 121.255 97.3612 121.201 97.2821 121.12C97.2256 121.052 97.1864 120.971 97.1676 120.884C97.1488 120.798 97.151 120.708 97.1741 120.623C97.2518 120.308 97.4765 120.264 97.4722 120.295Z" fill="#263238"/>
<path d="M75.6907 118.368H75.7987L76.1141 118.394C76.3949 118.424 76.8096 118.45 77.3539 118.467C78.4426 118.51 80.041 118.532 82.0757 118.515C86.1408 118.489 91.9512 118.338 98.9237 118.083H99.023V118.182C99.1613 120.873 99.3082 123.798 99.455 126.9V126.999H99.3643C98.2584 127.207 97.1395 127.293 95.9947 127.41L92.5042 127.712C90.1325 127.906 87.6917 128.088 85.2077 128.265L76.0752 128.878C73.427 128.71 70.8566 127.76 69.0595 126.014C68.1761 125.172 67.4824 124.152 67.0248 123.02C66.5953 121.953 66.2529 120.852 66.001 119.729C64.9339 115.409 64.273 111.473 63.733 108.207C63.4738 106.574 63.2534 105.101 63.0677 103.814C62.8709 102.718 62.7425 101.612 62.6832 100.5C62.648 99.7947 62.7968 99.092 63.1152 98.4613C63.2244 98.2459 63.3706 98.0514 63.5472 97.8867C63.3959 98.0731 63.2614 98.2726 63.1454 98.4829C62.8508 99.1126 62.72 99.8066 62.7653 100.5C62.8433 101.607 62.9876 102.707 63.1973 103.796C63.4003 105.092 63.6293 106.553 63.8971 108.186C64.4414 111.443 65.1326 115.352 66.2083 119.677C66.4633 120.789 66.8056 121.88 67.2322 122.938C67.6819 124.042 68.3624 125.036 69.228 125.854C70.956 127.552 73.5005 128.481 76.1011 128.649L85.2293 128.027L92.5214 127.479L96.012 127.181C97.1482 127.064 98.2886 126.978 99.347 126.779L99.2607 126.896C99.1138 123.807 98.9755 120.869 98.8286 118.173L98.9366 118.273C91.9685 118.528 86.1581 118.649 82.0886 118.64C80.0539 118.64 78.4555 118.601 77.3669 118.536C76.8226 118.506 76.4035 118.472 76.1227 118.428L75.8074 118.389C75.7677 118.388 75.7284 118.38 75.6907 118.368Z" fill="#263238"/>
<path d="M75.6907 118.368C75.5955 118.149 75.5203 117.922 75.4661 117.69C75.3408 117.258 75.168 116.61 74.9606 115.815C74.5286 114.229 74.0318 112.022 73.4789 109.585C72.9259 107.149 72.4205 104.941 72.0403 103.347L71.6083 101.459C71.5409 101.231 71.496 100.997 71.4744 100.76C71.5672 100.979 71.6423 101.206 71.699 101.438C71.833 101.87 72.0058 102.513 72.2174 103.308C72.6494 104.889 73.1765 107.093 73.7294 109.533C74.2824 111.974 74.736 114.139 75.1248 115.776C75.2976 116.545 75.4445 117.18 75.5568 117.668C75.6189 117.898 75.6637 118.132 75.6907 118.368Z" fill="#263238"/>
<path d="M71.4571 93.2297C71.461 93.3895 71.445 93.5491 71.4096 93.7049C71.3664 94.0117 71.2973 94.448 71.2023 95.0009C71.1609 95.3026 71.1003 95.6013 71.0208 95.8952C70.9944 95.9926 70.9455 96.0825 70.8779 96.1576C70.8104 96.2326 70.7262 96.2907 70.632 96.3272C70.4423 96.3772 70.2429 96.3772 70.0531 96.3272C69.3403 96.1803 68.5627 95.9902 67.7506 95.7699C66.1306 95.3379 64.6877 94.8584 63.6379 94.5344L62.3981 94.1456C62.2477 94.1076 62.1025 94.051 61.9661 93.9771C62.1258 93.9818 62.2842 94.0079 62.437 94.0549C62.7394 94.124 63.1714 94.2277 63.7027 94.3745C64.7655 94.6553 66.217 95.096 67.8327 95.5409C68.6405 95.7613 69.4095 95.9729 70.1179 96.1155C70.2699 96.165 70.4318 96.1754 70.5888 96.1457C70.6532 96.1222 70.7111 96.0837 70.7577 96.0334C70.8043 95.983 70.8382 95.9223 70.8567 95.8563C70.9517 95.5798 70.9906 95.2601 71.0554 94.9923C71.1677 94.4566 71.2671 94.0246 71.3362 93.7222C71.3525 93.5531 71.3932 93.3872 71.4571 93.2297Z" fill="#263238"/>
<path d="M63.8971 153.036L66.9168 194.02L68.1782 193.726L67.7074 153.9L63.8971 153.036Z" fill="#263238"/>
<path d="M51.1013 154.461L41.9299 193.972H43.5888L56.7173 154.461H51.1013Z" fill="#263238"/>
<path d="M75.3581 154.461L87.8688 193.972H89.208L79.2677 154.461H75.3581Z" fill="#263238"/>
<path d="M77.0342 157.114L48.9974 175.435V176.437L77.8162 157.114H77.0342Z" fill="#263238"/>
<path d="M53.244 157.114L83.6223 177.556V175.992L54.1339 156.22L53.244 157.114Z" fill="#263238"/>
<path d="M46.9109 155.14L83.0347 154.487C83.3583 154.481 83.677 154.407 83.9701 154.27C84.2633 154.133 84.5244 153.936 84.7365 153.692C84.9487 153.448 85.1072 153.161 85.2018 152.852C85.2963 152.542 85.3248 152.217 85.2855 151.895C85.2201 151.327 84.9454 150.803 84.5149 150.426C84.0845 150.049 83.5291 149.846 82.957 149.856L46.3191 150.444L46.9109 155.14Z" fill="#E1A553"/>
<g opacity="0.2">
<path d="M46.9109 155.14L83.0347 154.487C83.3583 154.481 83.677 154.407 83.9701 154.27C84.2633 154.133 84.5244 153.936 84.7365 153.692C84.9487 153.448 85.1072 153.161 85.2018 152.852C85.2963 152.542 85.3248 152.217 85.2855 151.895C85.2201 151.327 84.9454 150.803 84.5149 150.426C84.0845 150.049 83.5291 149.846 82.957 149.856L46.3191 150.444L46.9109 155.14Z" fill="black"/>
</g>
<path d="M43.2302 127.215L46.8763 155.14L75.3581 154.461L75.2846 137.501C75.2947 136.835 75.1644 136.173 74.9023 135.561C74.6401 134.948 74.252 134.397 73.7631 133.944C73.2742 133.491 72.6955 133.146 72.0645 132.931C71.4335 132.716 70.7644 132.637 70.1006 132.697L48.384 134.659L45.5242 105.062L42.6384 104.816C42.337 104.794 42.0345 104.839 41.7529 104.949C41.4713 105.059 41.2178 105.23 41.0108 105.45C40.8038 105.671 40.6486 105.934 40.5565 106.222C40.4644 106.51 40.4377 106.815 40.4784 107.114L43.2302 127.215Z" fill="#E1A553"/>
</svg>
