<svg width="19" height="18" viewBox="0 0 19 18" fill="none" xmlns="http://www.w3.org/2000/svg">
<path d="M11.0642 7.10391L7.26919 10.8989C6.78169 10.4114 6.48169 9.74391 6.48169 9.00141C6.48169 7.51641 7.68169 6.31641 9.16669 6.31641C9.90919 6.31641 10.5767 6.61641 11.0642 7.10391Z" stroke="#E1A553" stroke-width="1.5" stroke-linecap="round" stroke-linejoin="round"/>
<path d="M13.5317 4.32687C12.2192 3.33687 10.7192 2.79688 9.16669 2.79688C6.51919 2.79688 4.05169 4.35687 2.33419 7.05687C1.65919 8.11437 1.65919 9.89188 2.33419 10.9494C2.92669 11.8794 3.61669 12.6819 4.36669 13.3269" stroke="#E1A553" stroke-width="1.5" stroke-linecap="round" stroke-linejoin="round"/>
<path d="M6.48169 14.6492C7.33669 15.0092 8.24419 15.2042 9.16669 15.2042C11.8142 15.2042 14.2817 13.6442 15.9992 10.9442C16.6742 9.88672 16.6742 8.10922 15.9992 7.05172C15.7517 6.66172 15.4817 6.29422 15.2042 5.94922" stroke="#E1A553" stroke-width="1.5" stroke-linecap="round" stroke-linejoin="round"/>
<path d="M11.7992 9.52344C11.6042 10.5809 10.7417 11.4434 9.6842 11.6384" stroke="#E1A553" stroke-width="1.5" stroke-linecap="round" stroke-linejoin="round"/>
<path d="M7.26919 10.8984L1.66669 16.5009" stroke="#E1A553" stroke-width="1.5" stroke-linecap="round" stroke-linejoin="round"/>
<path d="M16.6667 1.5L11.0642 7.1025" stroke="#E1A553" stroke-width="1.5" stroke-linecap="round" stroke-linejoin="round"/>
</svg>
